; NON-PLATED HOLES START AT T1
; THROUGH (PLATED) HOLES START AT T100
M48
INCH
T100C0.015748
T101C0.038000
T102C0.044111
T103C0.044139
T104C0.035000
%
T100
X048440Y023482
X072440Y033482
X088541Y023503
X078440Y033482
X109440Y062482
X109440Y070482
X049440Y090482
X011440Y031482
X040440Y058482
X026440Y033482
X109440Y078482
X072440Y031482
X061440Y064482
X024440Y031482
X065440Y061482
X061440Y092482
X065440Y068482
X042440Y116482
X076440Y070482
X092481Y031869
X036440Y031482
X038440Y033482
X051440Y060482
X045440Y087482
X057440Y116482
X045440Y089482
X040440Y023482
X019440Y114482
X116440Y106482
X033440Y066482
X116440Y056482
X116440Y088482
X016440Y023482
X046440Y061482
X048440Y064482
X059440Y055482
X069440Y052482
X109440Y094482
X116463Y084425
X056440Y031482
X082440Y033482
X060440Y023482
X045440Y094482
X116440Y047482
X109440Y074482
X062440Y088482
X047440Y061482
X086440Y033482
X088440Y031482
X032440Y023482
X043440Y093482
X048440Y031482
X067440Y088482
X109440Y049482
X109440Y045482
X067440Y033482
X116440Y092482
X084440Y031482
X044440Y023482
X020440Y031482
X040440Y031482
X046440Y084482
X109440Y086482
X044440Y058482
X042440Y033482
X116440Y043482
X042440Y064482
X064501Y023462
X031440Y060482
X064440Y089482
X116440Y064482
X082440Y116482
X092440Y023482
X109440Y058482
X109440Y090482
X040440Y052482
X046440Y033482
X068440Y086482
X045440Y066482
X008432Y032495
X021440Y116482
X109440Y066482
X067440Y116482
X044440Y031482
X059440Y094482
X072440Y116482
X033440Y075482
X116433Y051505
X062440Y033482
X109440Y108482
X087440Y116482
X063440Y089482
X067440Y067482
X076339Y023503
X059440Y059482
X052440Y031482
X032440Y068482
X069440Y060482
X092440Y079482
X054440Y033482
X045440Y085482
X075440Y080482
X072339Y023462
X052440Y116482
X012415Y032396
X068440Y087482
X068440Y058482
X046440Y088482
X045440Y092482
X026440Y116482
X116440Y068482
X010440Y033482
X069440Y090482
X048440Y092482
X094440Y033482
X066440Y072482
X076440Y085482
X030440Y116482
X028440Y087482
X075440Y090482
X076440Y031482
X064440Y066482
X047440Y116482
X006440Y023462
X062440Y059482
X104440Y082482
X070440Y085482
X032440Y031482
X068440Y071482
X109440Y033482
X091440Y116482
X109440Y114482
X116440Y101482
X063440Y094482
X064440Y060482
X064440Y031482
X022440Y033482
X109440Y082482
X046440Y094482
X064440Y094482
X080440Y031482
X050440Y033482
X116440Y096482
X038440Y060482
X036440Y023482
X071440Y074482
X019440Y099482
X043440Y058482
X068379Y023462
X062440Y116482
X048440Y086482
X109440Y053482
X056440Y023482
X064440Y084482
X059440Y090482
X049440Y057482
X047440Y089482
X116440Y072482
X047440Y066482
X080420Y023462
X033440Y061482
X052440Y023482
X036440Y116482
X069440Y070482
X014440Y033482
X065440Y090482
X058440Y033482
X020440Y023482
X045440Y060482
X065440Y094482
X109440Y103482
X077440Y116482
X034440Y064482
X067440Y073482
X116509Y076586
X076440Y076482
X024440Y023482
X028440Y031482
X012440Y023482
X069440Y076482
X028440Y090482
X066440Y070482
X018440Y033482
X061440Y094482
X032440Y061482
X028440Y023482
X116440Y080482
X046440Y092482
X044440Y090482
X068440Y031482
X034440Y033482
X016440Y031482
X074420Y092492
X068440Y072482
X066440Y061482
X060440Y031482
X075440Y083482
X005436Y030487
X009440Y023482
X030440Y033482
X090440Y033482
X067440Y064482
X064440Y086482
X109440Y098482
X084440Y023482
X073440Y089482
X116440Y060482
X095477Y116445
X089440Y045482
X073440Y090482
T101
X052440Y112482
X082440Y111482
X087440Y111482
X080440Y026482
X042440Y111482
X067440Y111482
X032440Y026482
X016440Y026482
X021440Y112482
X088440Y027482
X012440Y027482
X047440Y112482
X068440Y027482
X042440Y112482
X072440Y026482
X057440Y112482
X084440Y027482
X111440Y076482
X111440Y101482
X095440Y111482
X095440Y112482
X112440Y060482
X112440Y092482
X006440Y026482
X004440Y023482
X056440Y027482
X112440Y047482
X088440Y026482
X020440Y026482
X036440Y027482
X026440Y112482
X048440Y026482
X064440Y027482
X112440Y051482
X084440Y026482
X112440Y064482
X040440Y026482
X030440Y112482
X030440Y111482
X052440Y111482
X112440Y056482
X040440Y027482
X064440Y026482
X112440Y068482
X006440Y027482
X028440Y026482
X072440Y111482
X111440Y092482
X077440Y111482
X091440Y111482
X111440Y043482
X112440Y080482
X044440Y026482
X111440Y051482
X024440Y027482
X060440Y026482
X080440Y027482
X006440Y107482
X092440Y027482
X060440Y027482
X111440Y064482
X111440Y106482
X057440Y111482
X112440Y043482
X111440Y096482
X111440Y047482
X024440Y026482
X091440Y112482
X112440Y088482
X026440Y111482
X044440Y027482
X111440Y088482
X048440Y027482
X068440Y026482
X082440Y112482
X112440Y106482
X020440Y027482
X112440Y084482
X087440Y112482
X062440Y112482
X111440Y068482
X112440Y101482
X076440Y027482
X021440Y111482
X112440Y072482
X112440Y096482
X036440Y111482
X112440Y076482
X028440Y027482
X077440Y112482
X007440Y107482
X052440Y026482
X072440Y112482
X111440Y080482
X009440Y027482
X111440Y084482
X052440Y027482
X016440Y027482
X036440Y026482
X047440Y111482
X111440Y072482
X036440Y112482
X067440Y112482
X056440Y026482
X003440Y023482
X076440Y026482
X072440Y027482
X111440Y056482
X111440Y060482
X062440Y111482
X032440Y027482
X009440Y026482
X012440Y026482
X092440Y026482
T102
X025440Y087482
X024440Y071482
X025440Y070482
X025440Y084482
X025440Y074482
X024440Y086482
X025440Y072482
X024440Y081482
X024440Y070482
X025440Y089482
X024440Y077482
X024440Y088482
X024440Y075482
X024440Y082482
X025440Y079482
X025440Y086482
X024440Y072482
X025440Y075482
X024440Y087482
X025440Y076482
X024440Y076482
X025440Y088482
X025440Y082482
X024440Y074482
X025440Y083482
X024440Y079482
X025440Y071482
X024440Y089482
X025440Y081482
X025440Y077482
X024440Y084482
X024440Y083482
T103
X024440Y078482
X025440Y085482
X025440Y080482
X024440Y085482
X025440Y078482
X024440Y080482
X025440Y073482
X024440Y073482
T104
X049440Y106482
X107330Y056522
X065440Y052482
X064440Y052482
X047440Y106482
X031440Y055482
X009440Y035482
X063440Y096482
X029440Y055482
X067440Y107482
X078440Y107482
X080440Y074482
X082440Y035482
X081440Y035482
X089440Y035482
X065440Y099482
X023440Y106482
X107330Y062522
X049440Y055482
X090440Y035482
X061440Y096482
X048440Y035482
X029440Y052482
X107330Y082522
X107330Y051522
X053440Y035482
X046440Y055482
X080440Y086482
X043440Y106482
X080440Y069482
X049440Y035482
X031440Y052482
X032440Y055482
X077440Y072482
X003440Y031482
X072440Y035482
X006440Y035482
X088440Y107482
X074440Y035482
X067440Y096482
X077440Y083482
X107330Y049522
X083440Y107482
X089440Y107482
X107330Y074522
X080440Y068482
X086440Y035482
X048440Y055482
X032440Y035482
X077440Y082482
X107330Y070522
X107330Y068522
X037440Y035482
X036440Y106482
X077440Y084482
X047440Y096482
X059440Y106482
X107330Y102522
X067440Y055482
X073440Y107482
X048440Y052482
X077440Y087482
X087440Y107482
X107330Y058522
X077440Y070482
X057440Y106482
X047440Y055482
X067440Y052482
X003440Y029482
X107330Y053522
X107330Y077522
X061440Y052482
X062440Y099482
X107330Y093522
X107330Y098522
X107330Y096522
X021440Y106482
X107330Y108522
X092440Y035482
X077440Y068482
X028440Y055482
X077440Y089482
X048440Y096482
X077440Y067482
X046440Y096482
X077440Y086482
X054440Y106482
X077440Y107482
X064440Y107482
X045440Y099482
X077440Y069482
X049440Y096482
X063440Y055482
X061440Y099482
X077440Y085482
X034440Y035482
X065440Y096482
X093440Y107482
X070440Y035482
X026440Y106482
X107330Y069522
X080440Y087482
X094440Y035482
X074440Y107482
X085440Y035482
X077440Y035482
X050440Y099482
X042440Y035482
X079440Y107482
X064440Y099482
X107330Y089522
X107330Y043522
X068440Y052482
X056440Y035482
X077440Y071482
X030440Y035482
X107330Y076522
X028440Y052482
X042440Y106482
X024440Y035482
X047440Y052482
X028440Y106482
X107330Y064522
X061440Y055482
X068440Y096482
X062440Y052482
X080440Y067482
X080440Y072482
X080440Y088482
X022440Y106482
X069440Y035482
X033440Y055482
X026440Y035482
X107330Y088522
X107330Y061522
X035440Y052482
X066440Y052482
X045440Y052482
X080440Y035482
X107330Y052522
X107330Y065522
X077440Y074482
X058440Y035482
X044440Y035482
X077440Y073482
X044440Y106482
X013440Y035482
X044440Y055482
X062440Y107482
X107330Y080522
X068440Y099482
X034440Y052482
X107330Y085522
X082440Y107482
X076440Y035482
X038440Y035482
X034440Y055482
X028440Y035482
X107330Y084522
X107330Y094522
X091440Y107482
X088440Y035482
X107330Y060522
X060440Y035482
X033440Y035482
X107330Y106522
X053440Y106482
X107330Y101522
X003440Y030482
X050440Y035482
X004440Y035482
X032440Y106482
X046440Y099482
X047440Y099482
X043440Y099482
X093440Y035482
X067440Y099482
X107330Y081522
X063440Y107482
X107330Y107522
X080440Y085482
X063440Y052482
X062440Y055482
X036440Y035482
X107330Y086522
X043440Y096482
X066440Y055482
X107330Y066522
X107330Y092522
X042440Y052482
X012440Y035482
X048440Y099482
X052440Y035482
X046440Y035482
X014440Y035482
X025440Y035482
X040440Y035482
X080440Y082482
X078440Y035482
X017440Y035482
X107330Y078522
X092440Y107482
X107330Y090522
X077440Y088482
X107330Y073522
X043440Y052482
X080440Y089482
X027440Y106482
X052440Y106482
X068440Y107482
X020440Y035482
X044440Y096482
X005440Y035482
X061440Y035482
X072440Y107482
X044440Y052482
X095440Y107482
X038440Y106482
X058440Y106482
X064440Y055482
X107330Y097522
X008440Y035482
X084440Y107482
X080440Y083482
X041440Y035482
X022440Y035482
X044440Y099482
X033440Y052482
X018440Y035482
X065440Y055482
X066440Y096482
X049440Y099482
X080440Y071482
X049440Y052482
X096440Y107482
X064440Y035482
X045440Y096482
X043440Y055482
X016440Y035482
X037440Y106482
X107330Y057522
X030440Y055482
X045440Y055482
X046440Y052482
X107330Y047522
X030440Y052482
X080440Y084482
X010440Y035482
X068440Y035482
X031440Y106482
X065440Y035482
X035440Y055482
X068440Y055482
X066440Y035482
X048440Y106482
X030440Y106482
X097440Y107482
X080440Y073482
X029440Y035482
X107330Y044522
X107330Y072522
X021440Y035482
X107330Y048522
X063440Y099482
X045440Y035482
X107330Y045522
X057440Y035482
X062440Y096482
X064440Y096482
X062440Y035482
X054440Y035482
X066440Y099482
X069440Y107482
X042440Y055482
X084440Y035482
X073440Y035482
X107330Y103522
X032440Y052482
X050440Y096482
X080440Y070482
T00
M30
