G04 MADE WITH FRITZING*
G04 WWW.FRITZING.ORG*
G04 DOUBLE SIDED*
G04 HOLES PLATED*
G04 CONTOUR ON CENTER OF CONTOUR VECTOR*
%ASAXBY*%
%FSLAX23Y23*%
%MOIN*%
%OFA0B0*%
%SFA1.0B1.0*%
%ADD10C,0.039370*%
%ADD11C,0.078000*%
%ADD12C,0.075000*%
%ADD13R,0.075000X0.075000*%
%ADD14C,0.012000*%
%ADD15C,0.016000*%
%ADD16C,0.024000*%
%LNCOPPER0*%
G90*
G70*
G54D10*
X5083Y4596D03*
X2482Y4794D03*
X2483Y5093D03*
X3081Y5093D03*
X3282Y4794D03*
X5682Y4694D03*
X1280Y4295D03*
X5282Y4294D03*
X5582Y3894D03*
X5682Y3694D03*
X6082Y3294D03*
X5681Y2596D03*
X5681Y1994D03*
X5782Y2495D03*
X5483Y2394D03*
X5382Y2293D03*
X3481Y2693D03*
X382Y5494D03*
X382Y5794D03*
X382Y4794D03*
X382Y4394D03*
X382Y5194D03*
X4982Y5394D03*
X5684Y5196D03*
X5782Y5194D03*
X6882Y7494D03*
X5482Y3694D03*
X8893Y7402D03*
X2882Y4094D03*
X5682Y4094D03*
X5482Y3494D03*
X3282Y1494D03*
X2982Y1494D03*
X2382Y1494D03*
X11682Y2494D03*
X8882Y7494D03*
X7782Y7494D03*
X7282Y7494D03*
X8282Y7494D03*
X6482Y7494D03*
X9282Y3794D03*
X10482Y4094D03*
X5982Y7494D03*
X5582Y7494D03*
X5182Y7494D03*
X4982Y7494D03*
X4582Y7494D03*
X4182Y7494D03*
X3382Y7494D03*
X2982Y7494D03*
X2582Y7494D03*
X2182Y7494D03*
G54D11*
X682Y1094D03*
X682Y994D03*
X10482Y1094D03*
X10482Y994D03*
X11182Y2494D03*
X11282Y2494D03*
X11182Y2794D03*
X11282Y2794D03*
X11182Y3094D03*
X11282Y3094D03*
X11182Y3394D03*
X11282Y3394D03*
X11182Y3994D03*
X11282Y3994D03*
X11182Y3694D03*
X11282Y3694D03*
X11182Y4294D03*
X11282Y4294D03*
X11182Y4594D03*
X11282Y4594D03*
X11182Y4994D03*
X11282Y4994D03*
X11182Y5294D03*
X11282Y5294D03*
X11182Y5594D03*
X11282Y5594D03*
X11182Y5894D03*
X11282Y5894D03*
X11182Y6194D03*
X11282Y6194D03*
X11082Y6494D03*
X11182Y6494D03*
X11082Y6894D03*
X11182Y6894D03*
X8882Y7094D03*
X8882Y7194D03*
X8282Y7194D03*
X8282Y7094D03*
X7782Y7194D03*
X7782Y7094D03*
X7282Y7194D03*
X7282Y7094D03*
X6882Y7194D03*
X6882Y7094D03*
X6482Y7194D03*
X6482Y7094D03*
X5982Y7194D03*
X5982Y7094D03*
X5582Y7194D03*
X5582Y7094D03*
X5182Y7194D03*
X5182Y7094D03*
X4982Y7194D03*
X4982Y7094D03*
X4582Y7194D03*
X4582Y7094D03*
X882Y6794D03*
X882Y6694D03*
X182Y5794D03*
X182Y5594D03*
X182Y5394D03*
X182Y5194D03*
X182Y4994D03*
X4182Y7194D03*
X4182Y7094D03*
X3782Y7194D03*
X3782Y7094D03*
X3382Y7194D03*
X3382Y7094D03*
X2982Y7194D03*
X2982Y7094D03*
X2582Y7194D03*
X2582Y7094D03*
X2182Y7194D03*
X2182Y7094D03*
X10082Y1094D03*
X10082Y994D03*
X9682Y1094D03*
X9682Y994D03*
X9282Y1094D03*
X9282Y994D03*
X8882Y1094D03*
X8882Y994D03*
X8482Y1094D03*
X8482Y994D03*
X8182Y1094D03*
X8182Y994D03*
X7782Y1094D03*
X7782Y994D03*
X4582Y1094D03*
X4582Y994D03*
X4282Y1094D03*
X4282Y994D03*
X3982Y1094D03*
X3982Y994D03*
X3382Y1094D03*
X3382Y994D03*
X3082Y1094D03*
X3082Y994D03*
X2782Y1094D03*
X2782Y994D03*
X3682Y1094D03*
X3682Y994D03*
X2482Y1094D03*
X2482Y994D03*
X2182Y1094D03*
X2182Y994D03*
X1882Y1094D03*
X1882Y994D03*
X1582Y1094D03*
X1582Y994D03*
X1282Y1094D03*
X1282Y994D03*
X982Y1094D03*
X982Y994D03*
X382Y1094D03*
X382Y994D03*
X182Y1094D03*
X182Y994D03*
G54D10*
X8282Y7494D03*
X11682Y6894D03*
X11682Y6494D03*
X11682Y6194D03*
X11682Y5894D03*
X11682Y5594D03*
X11682Y5294D03*
X11682Y4994D03*
X11682Y4594D03*
X11682Y4294D03*
X11682Y3994D03*
X11682Y3694D03*
X11682Y3394D03*
X11682Y2794D03*
X11682Y3094D03*
X10082Y794D03*
X9682Y794D03*
X9282Y794D03*
X382Y794D03*
X1282Y794D03*
X1582Y794D03*
X1882Y794D03*
X2182Y794D03*
X2482Y794D03*
X2782Y794D03*
X3082Y794D03*
X3382Y794D03*
X3682Y794D03*
X3982Y794D03*
X4282Y794D03*
X4582Y794D03*
X7782Y794D03*
X8182Y794D03*
X8482Y794D03*
X8882Y794D03*
X682Y794D03*
X381Y1394D03*
X682Y1394D03*
X982Y1394D03*
X10482Y1394D03*
X2882Y5094D03*
X3082Y4794D03*
X1482Y5794D03*
X1182Y5794D03*
X2682Y5294D03*
X2682Y5094D03*
X2682Y4694D03*
X2682Y4294D03*
X2582Y5294D03*
X2582Y5094D03*
X2582Y4594D03*
X2582Y4394D03*
X2382Y4894D03*
X3182Y4894D03*
X4182Y5794D03*
X4182Y4894D03*
X5582Y5294D03*
X5582Y4894D03*
X5382Y4894D03*
X5582Y4394D03*
X5382Y3894D03*
X5382Y3394D03*
X6682Y2894D03*
X3382Y3494D03*
X5682Y3094D03*
X3082Y3694D03*
X2482Y3694D03*
X1482Y3694D03*
X2882Y4494D03*
X5482Y5294D03*
X5482Y4294D03*
X5482Y4794D03*
X5482Y4494D03*
X2882Y3594D03*
X1282Y3594D03*
X5382Y5294D03*
X5382Y4994D03*
X1682Y4694D03*
X1682Y3894D03*
X1382Y3594D03*
X2982Y3894D03*
X2682Y3894D03*
X5782Y4594D03*
X5782Y3594D03*
X5182Y5294D03*
X5182Y5094D03*
X6182Y5094D03*
X5982Y4894D03*
X6182Y4194D03*
X6182Y3994D03*
X5382Y2894D03*
X2782Y3494D03*
X2982Y3594D03*
X2682Y3294D03*
X1182Y3494D03*
X2582Y3294D03*
X2182Y3294D03*
X2182Y3194D03*
X6182Y2094D03*
X6182Y1794D03*
G54D12*
X2482Y2894D03*
X2482Y3194D03*
X2582Y2894D03*
X2582Y3194D03*
X2682Y2894D03*
X2682Y3194D03*
X2782Y2894D03*
X2782Y3194D03*
X2882Y2894D03*
X2882Y3194D03*
X2982Y2894D03*
X2982Y3194D03*
X3082Y2894D03*
X3082Y3194D03*
X3182Y2894D03*
X3182Y3194D03*
X6682Y1994D03*
X6382Y1994D03*
X6682Y2094D03*
X6382Y2094D03*
X6682Y2194D03*
X6382Y2194D03*
X6682Y2294D03*
X6382Y2294D03*
X6682Y2394D03*
X6382Y2394D03*
X6682Y2494D03*
X6382Y2494D03*
X6682Y2594D03*
X6382Y2594D03*
X6682Y2694D03*
X6382Y2694D03*
X6682Y3094D03*
X6382Y3094D03*
X6682Y3194D03*
X6382Y3194D03*
X6682Y3294D03*
X6382Y3294D03*
X6682Y3394D03*
X6382Y3394D03*
X6682Y3494D03*
X6382Y3494D03*
X6682Y3594D03*
X6382Y3594D03*
X6682Y3694D03*
X6382Y3694D03*
X6682Y3794D03*
X6382Y3794D03*
X6682Y4094D03*
X6382Y4094D03*
X6682Y4194D03*
X6382Y4194D03*
X6682Y4294D03*
X6382Y4294D03*
X6682Y4394D03*
X6382Y4394D03*
X6682Y4494D03*
X6382Y4494D03*
X6682Y4594D03*
X6382Y4594D03*
X6682Y4694D03*
X6382Y4694D03*
X6682Y4794D03*
X6382Y4794D03*
X5882Y5794D03*
X5882Y5494D03*
X5782Y5794D03*
X5782Y5494D03*
X5682Y5794D03*
X5682Y5494D03*
X5582Y5794D03*
X5582Y5494D03*
X5482Y5794D03*
X5482Y5494D03*
X5382Y5794D03*
X5382Y5494D03*
X5282Y5794D03*
X5282Y5494D03*
X5182Y5794D03*
X5182Y5494D03*
X3082Y5794D03*
X3082Y5494D03*
X2982Y5794D03*
X2982Y5494D03*
X2882Y5794D03*
X2882Y5494D03*
X2782Y5794D03*
X2782Y5494D03*
X2682Y5794D03*
X2682Y5494D03*
X2582Y5794D03*
X2582Y5494D03*
X2482Y5794D03*
X2482Y5494D03*
X2382Y5794D03*
X2382Y5494D03*
G54D10*
X3782Y7494D03*
X8982Y394D03*
X2382Y5194D03*
X6082Y4794D03*
X1282Y4094D03*
X5982Y3794D03*
G54D12*
X882Y2894D03*
X882Y3194D03*
X982Y2894D03*
X982Y3194D03*
X1082Y2894D03*
X1082Y3194D03*
X1182Y2894D03*
X1182Y3194D03*
X1282Y2894D03*
X1282Y3194D03*
X1382Y2894D03*
X1382Y3194D03*
X1482Y2894D03*
X1482Y3194D03*
X1582Y2894D03*
X1582Y3194D03*
G54D10*
X1782Y3494D03*
X3182Y3394D03*
G54D12*
X2482Y1794D03*
X2582Y1794D03*
X2682Y1794D03*
X1882Y1794D03*
X1982Y1794D03*
X2082Y1794D03*
X1582Y1794D03*
X1682Y1794D03*
X1782Y1794D03*
X1282Y1794D03*
X1382Y1794D03*
X1482Y1794D03*
X182Y1894D03*
X182Y1994D03*
X182Y2094D03*
X2182Y1794D03*
X2282Y1794D03*
X2382Y1794D03*
X3982Y1794D03*
X4082Y1794D03*
X4182Y1794D03*
X2782Y1794D03*
X2882Y1794D03*
X2982Y1794D03*
X3082Y1794D03*
X3182Y1794D03*
X3282Y1794D03*
X3682Y1794D03*
X3782Y1794D03*
X3882Y1794D03*
X3382Y1794D03*
X3482Y1794D03*
X3582Y1794D03*
X9782Y6494D03*
X9782Y6594D03*
X9782Y6694D03*
X9782Y6194D03*
X9782Y6294D03*
X9782Y6394D03*
X9782Y5894D03*
X9782Y5994D03*
X9782Y6094D03*
X9782Y5594D03*
X9782Y5694D03*
X9782Y5794D03*
X9782Y5294D03*
X9782Y5394D03*
X9782Y5494D03*
X9782Y4994D03*
X9782Y5094D03*
X9782Y5194D03*
X9782Y4594D03*
X9782Y4694D03*
X9782Y4794D03*
X9782Y4294D03*
X9782Y4394D03*
X9782Y4494D03*
X9782Y6794D03*
X9782Y6894D03*
X9782Y6994D03*
X8878Y6583D03*
X8778Y6583D03*
X8678Y6583D03*
X9782Y3994D03*
X9782Y4094D03*
X9782Y4194D03*
X9782Y3694D03*
X9782Y3794D03*
X9782Y3894D03*
X9782Y3394D03*
X9782Y3494D03*
X9782Y3594D03*
X9782Y3094D03*
X9782Y3194D03*
X9782Y3294D03*
X9782Y2794D03*
X9782Y2894D03*
X9782Y2994D03*
X9782Y2494D03*
X9782Y2594D03*
X9782Y2694D03*
X2982Y6594D03*
X3082Y6594D03*
X3182Y6594D03*
X3382Y6594D03*
X3482Y6594D03*
X3582Y6594D03*
X4182Y6594D03*
X4282Y6594D03*
X4382Y6594D03*
X4582Y6594D03*
X4682Y6594D03*
X4782Y6594D03*
X4882Y6594D03*
X4982Y6594D03*
X5082Y6594D03*
X5182Y6594D03*
X5282Y6594D03*
X5382Y6594D03*
X5582Y6594D03*
X5682Y6594D03*
X5782Y6594D03*
X5982Y6594D03*
X6082Y6594D03*
X6182Y6594D03*
X6482Y6594D03*
X6582Y6594D03*
X6682Y6594D03*
X6882Y6594D03*
X6982Y6594D03*
X7082Y6594D03*
X7282Y6594D03*
X7382Y6594D03*
X7482Y6594D03*
X7782Y6594D03*
X7882Y6594D03*
X7982Y6594D03*
X8282Y6594D03*
X8382Y6594D03*
X8482Y6594D03*
X2582Y6594D03*
X2682Y6594D03*
X2782Y6594D03*
X2182Y6594D03*
X2282Y6594D03*
X2382Y6594D03*
X3782Y6594D03*
X3882Y6594D03*
X3982Y6594D03*
G54D10*
X1982Y5794D03*
X1982Y7294D03*
G54D12*
X4282Y1794D03*
X4382Y1794D03*
X4482Y1794D03*
X982Y1794D03*
X1082Y1794D03*
X1182Y1794D03*
X10482Y1794D03*
X10582Y1794D03*
X10682Y1794D03*
X10082Y1794D03*
X10182Y1794D03*
X10282Y1794D03*
X7782Y1694D03*
X7882Y1694D03*
X7982Y1694D03*
X4582Y1794D03*
X4682Y1794D03*
X4782Y1794D03*
X8882Y1794D03*
X8982Y1794D03*
X9082Y1794D03*
X8182Y1794D03*
X8282Y1794D03*
X8382Y1794D03*
X8482Y1794D03*
X8582Y1794D03*
X8682Y1794D03*
X9282Y1794D03*
X9382Y1794D03*
X9482Y1794D03*
X9682Y1794D03*
X9782Y1794D03*
X9882Y1794D03*
G54D10*
X8682Y7294D03*
X10982Y7094D03*
X10982Y6694D03*
X10982Y6394D03*
X10982Y6094D03*
X10982Y5794D03*
X10982Y5194D03*
X10982Y5494D03*
X10982Y4794D03*
X10982Y4494D03*
X10982Y4194D03*
X10982Y3894D03*
X10982Y3594D03*
X10982Y7294D03*
X10982Y3294D03*
X10982Y2994D03*
X10982Y2694D03*
X10982Y1494D03*
X982Y794D03*
X1282Y1394D03*
X1582Y1394D03*
X1882Y1394D03*
X2182Y1394D03*
X2482Y1394D03*
X2782Y1394D03*
X3082Y1394D03*
X3382Y1394D03*
X3682Y1394D03*
X3982Y1394D03*
X4282Y1394D03*
X4582Y1394D03*
X7782Y1394D03*
X8182Y1394D03*
X8482Y1394D03*
X8882Y1394D03*
X9282Y1394D03*
X9682Y1394D03*
X10082Y1394D03*
X10482Y794D03*
X10682Y1494D03*
X9882Y1494D03*
X9482Y1494D03*
X8382Y1494D03*
X7982Y1494D03*
X4482Y1494D03*
X2682Y1494D03*
X2082Y1494D03*
X1782Y1494D03*
X1482Y1494D03*
X1182Y1494D03*
X3582Y1494D03*
X3882Y1494D03*
X4182Y1494D03*
X4782Y1494D03*
X9082Y1494D03*
X10282Y1494D03*
X5282Y4694D03*
G54D12*
X382Y1794D03*
X482Y1794D03*
X582Y1794D03*
X682Y1794D03*
X782Y1794D03*
X882Y1794D03*
G54D10*
X882Y1494D03*
G54D13*
X2482Y2894D03*
X6682Y1994D03*
X6682Y3094D03*
X6682Y4094D03*
X5882Y5794D03*
X3082Y5794D03*
X882Y2894D03*
G54D14*
X5769Y4594D02*
X5096Y4596D01*
G54D15*
D02*
X2482Y5471D02*
X2482Y5107D01*
D02*
X5269Y4694D02*
X3283Y4693D01*
D02*
X3283Y4693D02*
X3282Y4781D01*
D02*
X5669Y4694D02*
X5296Y4694D01*
D02*
X5683Y4996D02*
X5682Y4708D01*
D02*
X5883Y4996D02*
X5683Y4996D01*
D02*
X5882Y5471D02*
X5883Y4996D01*
D02*
X6359Y4694D02*
X5696Y4694D01*
D02*
X5496Y4494D02*
X6359Y4494D01*
D02*
X5469Y4294D02*
X5382Y4294D01*
D02*
X5382Y4294D02*
X5296Y4294D01*
D02*
X6684Y3894D02*
X5596Y3894D01*
D02*
X6683Y3817D02*
X6684Y3894D01*
D02*
X6359Y3694D02*
X5696Y3694D01*
D02*
X6359Y3594D02*
X5796Y3594D01*
D02*
X6196Y2094D02*
X6359Y2094D01*
D02*
X6359Y1994D02*
X5694Y1994D01*
D02*
X6359Y2594D02*
X5694Y2596D01*
D02*
X6359Y2494D02*
X5795Y2495D01*
D02*
X6359Y2394D02*
X5496Y2394D01*
D02*
X6359Y2294D02*
X5395Y2293D01*
D02*
X3495Y2693D02*
X6359Y2694D01*
D02*
X2682Y5471D02*
X2682Y5308D01*
D02*
X2582Y5471D02*
X2582Y5308D01*
D02*
X2382Y5208D02*
X2382Y5471D01*
D02*
X4982Y6571D02*
X4982Y5408D01*
D02*
X5382Y5308D02*
X5382Y5471D01*
D02*
X5182Y5308D02*
X5182Y5471D01*
D02*
X5482Y5471D02*
X5482Y5308D01*
D02*
X5582Y5471D02*
X5582Y5308D01*
D02*
X5683Y5210D02*
X5682Y5471D01*
D02*
X5782Y5471D02*
X5782Y5208D01*
D02*
X6882Y7481D02*
X6882Y7219D01*
D02*
X6359Y4394D02*
X5596Y4394D01*
D02*
X6196Y4194D02*
X6359Y4194D01*
D02*
X6683Y4893D02*
X5996Y4894D01*
D02*
X6683Y4817D02*
X6683Y4893D01*
D02*
X6359Y3394D02*
X5396Y3394D01*
D02*
X8892Y7388D02*
X8884Y7219D01*
D02*
X2882Y3608D02*
X2882Y4081D01*
D02*
X2982Y3608D02*
X2982Y3881D01*
D02*
X2182Y7219D02*
X2182Y7481D01*
D02*
X2582Y7481D02*
X2582Y7219D01*
D02*
X2982Y7481D02*
X2982Y7219D01*
D02*
X382Y1771D02*
X381Y1407D01*
D02*
X682Y1771D02*
X682Y1408D01*
G54D16*
D02*
X982Y1766D02*
X982Y1413D01*
D02*
X1282Y1766D02*
X1282Y1413D01*
D02*
X1582Y1766D02*
X1582Y1413D01*
D02*
X1882Y1766D02*
X1882Y1413D01*
D02*
X2182Y1766D02*
X2182Y1413D01*
D02*
X2482Y1766D02*
X2482Y1413D01*
D02*
X2782Y1766D02*
X2782Y1413D01*
D02*
X3382Y1766D02*
X3382Y1413D01*
D02*
X3082Y1766D02*
X3082Y1413D01*
D02*
X3682Y1766D02*
X3682Y1413D01*
D02*
X3982Y1766D02*
X3982Y1413D01*
D02*
X4282Y1766D02*
X4282Y1413D01*
D02*
X4582Y1766D02*
X4582Y1413D01*
D02*
X7782Y1666D02*
X7782Y1413D01*
D02*
X8182Y1766D02*
X8182Y1413D01*
D02*
X8482Y1766D02*
X8482Y1413D01*
D02*
X8882Y1766D02*
X8882Y1413D01*
D02*
X9282Y1413D02*
X9282Y1766D01*
D02*
X9682Y1766D02*
X9682Y1413D01*
D02*
X10082Y1766D02*
X10082Y1413D01*
D02*
X10482Y1766D02*
X10482Y1413D01*
G54D15*
D02*
X9805Y2494D02*
X11158Y2494D01*
D02*
X9805Y2794D02*
X11158Y2794D01*
D02*
X9805Y3094D02*
X11158Y3094D01*
D02*
X9805Y3394D02*
X11158Y3394D01*
D02*
X9805Y3694D02*
X11158Y3694D01*
D02*
X9805Y3994D02*
X11158Y3994D01*
D02*
X9805Y4294D02*
X11158Y4294D01*
D02*
X9805Y4594D02*
X11158Y4594D01*
D02*
X9805Y4994D02*
X11158Y4994D01*
D02*
X9805Y5294D02*
X11158Y5294D01*
D02*
X9805Y5594D02*
X11158Y5594D01*
D02*
X9805Y5894D02*
X11158Y5894D01*
D02*
X9805Y6194D02*
X11158Y6194D01*
D02*
X9805Y6494D02*
X11058Y6494D01*
D02*
X11058Y6893D02*
X9805Y6796D01*
D02*
X8282Y7481D02*
X8282Y7219D01*
D02*
X7782Y7481D02*
X7782Y7219D01*
D02*
X7282Y7481D02*
X7282Y7219D01*
D02*
X6482Y7481D02*
X6482Y7219D01*
D02*
X5982Y7481D02*
X5982Y7219D01*
D02*
X5582Y7481D02*
X5582Y7219D01*
D02*
X5182Y7481D02*
X5182Y7219D01*
D02*
X4982Y7481D02*
X4982Y7219D01*
D02*
X4582Y7481D02*
X4582Y7219D01*
D02*
X4182Y7481D02*
X4182Y7219D01*
D02*
X3782Y7481D02*
X3782Y7219D01*
D02*
X3382Y7481D02*
X3382Y7219D01*
D02*
X2882Y5471D02*
X2882Y5108D01*
D02*
X3169Y4894D02*
X2396Y4894D01*
D02*
X2083Y4793D02*
X2083Y5295D01*
D02*
X2083Y5295D02*
X1482Y5295D01*
D02*
X1482Y5295D02*
X1482Y5492D01*
D02*
X1482Y5492D02*
X396Y5494D01*
D02*
X2469Y4794D02*
X2083Y4793D01*
D02*
X3069Y4794D02*
X2496Y4794D01*
D02*
X2582Y4581D02*
X2582Y4408D01*
D02*
X2582Y5281D02*
X2582Y5108D01*
D02*
X2682Y4681D02*
X2682Y4308D01*
D02*
X2682Y5281D02*
X2682Y5108D01*
D02*
X5282Y4708D02*
X5282Y5471D01*
D02*
X5396Y3894D02*
X5569Y3894D01*
D02*
X5582Y5281D02*
X5582Y4908D01*
D02*
X2783Y4896D02*
X3169Y4894D01*
D02*
X4182Y5781D02*
X4182Y4908D01*
D02*
X2782Y5471D02*
X2783Y4896D01*
D02*
X1481Y3696D02*
X2469Y3694D01*
D02*
X881Y3694D02*
X1481Y3696D01*
D02*
X882Y3217D02*
X881Y3694D01*
D02*
X3082Y3217D02*
X3082Y3681D01*
D02*
X2482Y3217D02*
X2482Y3681D01*
D02*
X1682Y3992D02*
X1682Y4681D01*
D02*
X1682Y3908D02*
X1682Y3992D01*
D02*
X1382Y3217D02*
X1382Y3581D01*
D02*
X1282Y3217D02*
X1282Y3581D01*
D02*
X2882Y3217D02*
X2882Y3581D01*
D02*
X6359Y3494D02*
X5496Y3494D01*
D02*
X5482Y5281D02*
X5482Y4808D01*
D02*
X1496Y3694D02*
X2469Y3694D01*
D02*
X1482Y3217D02*
X1482Y3681D01*
D02*
X5182Y5108D02*
X5182Y5281D01*
D02*
X5381Y5095D02*
X5382Y5281D01*
D02*
X6081Y4593D02*
X5796Y4594D01*
D02*
X6359Y4594D02*
X6081Y4593D01*
D02*
X5382Y5008D02*
X5381Y5095D01*
D02*
X2682Y3217D02*
X2682Y3281D01*
D02*
X6096Y4794D02*
X6359Y4794D01*
D02*
X2982Y3217D02*
X2982Y3581D01*
D02*
X3384Y2896D02*
X3382Y3481D01*
D02*
X3205Y2895D02*
X3384Y2896D01*
D02*
X2782Y3217D02*
X2782Y3481D01*
D02*
X5396Y2894D02*
X6669Y2894D01*
D02*
X2182Y3208D02*
X2182Y3281D01*
D02*
X2582Y3281D02*
X2582Y3217D01*
D02*
X1182Y3217D02*
X1182Y3481D01*
D02*
X1782Y2892D02*
X1605Y2894D01*
D02*
X1782Y3481D02*
X1782Y2892D01*
D02*
X5996Y3794D02*
X6359Y3794D01*
D02*
X3182Y3381D02*
X3182Y3217D01*
D02*
X3082Y5471D02*
X3081Y5107D01*
D02*
X5696Y4094D02*
X6359Y4094D01*
D02*
X6081Y3093D02*
X6359Y3094D01*
D02*
X5696Y3094D02*
X6081Y3093D01*
G04 End of Copper0*
M02*