G04 MADE WITH FRITZING*
G04 WWW.FRITZING.ORG*
G04 DOUBLE SIDED*
G04 HOLES PLATED*
G04 CONTOUR ON CENTER OF CONTOUR VECTOR*
%ASAXBY*%
%FSLAX23Y23*%
%MOIN*%
%OFA0B0*%
%SFA1.0B1.0*%
%ADD10C,0.039370*%
%ADD11C,0.078000*%
%ADD12C,0.075000*%
%ADD13R,0.035433X0.027559*%
%ADD14R,0.027559X0.035433*%
%ADD15R,0.075000X0.075000*%
%ADD16C,0.016000*%
%ADD17C,0.024000*%
%LNCOPPER1*%
G90*
G70*
G54D10*
X5083Y4596D03*
X2482Y4794D03*
X2483Y5093D03*
X3081Y5093D03*
X3282Y4794D03*
X5682Y4694D03*
X1280Y4295D03*
X5282Y4294D03*
X5582Y3894D03*
X5682Y3694D03*
X6082Y3294D03*
X5681Y2596D03*
X5681Y1994D03*
X5782Y2495D03*
X5483Y2394D03*
X5382Y2293D03*
X3481Y2693D03*
X382Y5494D03*
X382Y5794D03*
X382Y4794D03*
X382Y4394D03*
X382Y5194D03*
X4982Y5394D03*
X5684Y5196D03*
X5782Y5194D03*
X6882Y7494D03*
X5482Y3694D03*
X8893Y7402D03*
X2882Y4094D03*
X5682Y4094D03*
X5482Y3494D03*
X3282Y1494D03*
X2982Y1494D03*
X2382Y1494D03*
X11682Y2494D03*
X8882Y7494D03*
X7782Y7494D03*
X7282Y7494D03*
X8282Y7494D03*
X6482Y7494D03*
X9282Y3794D03*
X10482Y4094D03*
X5982Y7494D03*
X5582Y7494D03*
X5182Y7494D03*
X4982Y7494D03*
X4582Y7494D03*
X4182Y7494D03*
X3382Y7494D03*
X2982Y7494D03*
X2582Y7494D03*
X2182Y7494D03*
G54D11*
X682Y1094D03*
X682Y994D03*
X10482Y1094D03*
X10482Y994D03*
X11182Y2494D03*
X11282Y2494D03*
X11182Y2794D03*
X11282Y2794D03*
X11182Y3094D03*
X11282Y3094D03*
X11182Y3394D03*
X11282Y3394D03*
X11182Y3994D03*
X11282Y3994D03*
X11182Y3694D03*
X11282Y3694D03*
X11182Y4294D03*
X11282Y4294D03*
X11182Y4594D03*
X11282Y4594D03*
X11182Y4994D03*
X11282Y4994D03*
X11182Y5294D03*
X11282Y5294D03*
X11182Y5594D03*
X11282Y5594D03*
X11182Y5894D03*
X11282Y5894D03*
X11182Y6194D03*
X11282Y6194D03*
X11082Y6494D03*
X11182Y6494D03*
X11082Y6894D03*
X11182Y6894D03*
X8882Y7094D03*
X8882Y7194D03*
X8282Y7194D03*
X8282Y7094D03*
X7782Y7194D03*
X7782Y7094D03*
X7282Y7194D03*
X7282Y7094D03*
X6882Y7194D03*
X6882Y7094D03*
X6482Y7194D03*
X6482Y7094D03*
X5982Y7194D03*
X5982Y7094D03*
X5582Y7194D03*
X5582Y7094D03*
X5182Y7194D03*
X5182Y7094D03*
X4982Y7194D03*
X4982Y7094D03*
X4582Y7194D03*
X4582Y7094D03*
X882Y6794D03*
X882Y6694D03*
X4182Y7194D03*
X4182Y7094D03*
X3782Y7194D03*
X3782Y7094D03*
X3382Y7194D03*
X3382Y7094D03*
X2982Y7194D03*
X2982Y7094D03*
X2582Y7194D03*
X2582Y7094D03*
X2182Y7194D03*
X2182Y7094D03*
X10082Y1094D03*
X10082Y994D03*
X9682Y1094D03*
X9682Y994D03*
X9282Y1094D03*
X9282Y994D03*
X8882Y1094D03*
X8882Y994D03*
X8482Y1094D03*
X8482Y994D03*
X8182Y1094D03*
X8182Y994D03*
X7782Y1094D03*
X7782Y994D03*
X4582Y1094D03*
X4582Y994D03*
X4282Y1094D03*
X4282Y994D03*
X3982Y1094D03*
X3982Y994D03*
X3382Y1094D03*
X3382Y994D03*
X3082Y1094D03*
X3082Y994D03*
X2782Y1094D03*
X2782Y994D03*
X3682Y1094D03*
X3682Y994D03*
X2482Y1094D03*
X2482Y994D03*
X2182Y1094D03*
X2182Y994D03*
X1882Y1094D03*
X1882Y994D03*
X1582Y1094D03*
X1582Y994D03*
X1282Y1094D03*
X1282Y994D03*
X982Y1094D03*
X982Y994D03*
X382Y1094D03*
X382Y994D03*
X182Y1094D03*
X182Y994D03*
G54D10*
X8282Y7494D03*
X11682Y6894D03*
X11682Y6494D03*
X11682Y6194D03*
X11682Y5894D03*
X11682Y5594D03*
X11682Y5294D03*
X11682Y4994D03*
X11682Y4594D03*
X11682Y4294D03*
X11682Y3994D03*
X11682Y3694D03*
X11682Y3394D03*
X11682Y2794D03*
X11682Y3094D03*
X10082Y794D03*
X9682Y794D03*
X9282Y794D03*
X382Y794D03*
X1282Y794D03*
X1582Y794D03*
X1882Y794D03*
X2182Y794D03*
X2482Y794D03*
X2782Y794D03*
X3082Y794D03*
X3382Y794D03*
X3682Y794D03*
X3982Y794D03*
X4282Y794D03*
X4582Y794D03*
X7782Y794D03*
X8182Y794D03*
X8482Y794D03*
X8882Y794D03*
X682Y794D03*
X381Y1394D03*
X682Y1394D03*
X982Y1394D03*
X10482Y1394D03*
X2882Y5094D03*
X3082Y4794D03*
X1482Y5794D03*
X1182Y5794D03*
X2682Y5294D03*
X2682Y5094D03*
X2682Y4694D03*
X2682Y4294D03*
X2582Y5294D03*
X2582Y5094D03*
X2582Y4594D03*
X2582Y4394D03*
X2382Y4894D03*
X3182Y4894D03*
X4182Y5794D03*
X4182Y4894D03*
X5582Y5294D03*
X5582Y4894D03*
X5382Y4894D03*
X5582Y4394D03*
X5382Y3894D03*
X5382Y3394D03*
X6682Y2894D03*
X3382Y3494D03*
X5682Y3094D03*
X3082Y3694D03*
X2482Y3694D03*
X1482Y3694D03*
X2882Y4494D03*
X5482Y5294D03*
X5482Y4294D03*
X5482Y4794D03*
X5482Y4494D03*
X2882Y3594D03*
X1282Y3594D03*
X5382Y5294D03*
X5382Y4994D03*
X1682Y4694D03*
X1682Y3894D03*
X1382Y3594D03*
X2982Y3894D03*
X2682Y3894D03*
X5782Y4594D03*
X5782Y3594D03*
X5182Y5294D03*
X5182Y5094D03*
X6182Y5094D03*
X5982Y4894D03*
X6182Y4194D03*
X6182Y3994D03*
X5382Y2894D03*
X2782Y3494D03*
X2982Y3594D03*
X2682Y3294D03*
X1182Y3494D03*
X2582Y3294D03*
X2182Y3294D03*
X2182Y3194D03*
X6182Y2094D03*
X6182Y1794D03*
G54D12*
X2482Y2894D03*
X2482Y3194D03*
X2582Y2894D03*
X2582Y3194D03*
X2682Y2894D03*
X2682Y3194D03*
X2782Y2894D03*
X2782Y3194D03*
X2882Y2894D03*
X2882Y3194D03*
X2982Y2894D03*
X2982Y3194D03*
X3082Y2894D03*
X3082Y3194D03*
X3182Y2894D03*
X3182Y3194D03*
X6682Y1994D03*
X6382Y1994D03*
X6682Y2094D03*
X6382Y2094D03*
X6682Y2194D03*
X6382Y2194D03*
X6682Y2294D03*
X6382Y2294D03*
X6682Y2394D03*
X6382Y2394D03*
X6682Y2494D03*
X6382Y2494D03*
X6682Y2594D03*
X6382Y2594D03*
X6682Y2694D03*
X6382Y2694D03*
X6682Y3094D03*
X6382Y3094D03*
X6682Y3194D03*
X6382Y3194D03*
X6682Y3294D03*
X6382Y3294D03*
X6682Y3394D03*
X6382Y3394D03*
X6682Y3494D03*
X6382Y3494D03*
X6682Y3594D03*
X6382Y3594D03*
X6682Y3694D03*
X6382Y3694D03*
X6682Y3794D03*
X6382Y3794D03*
X6682Y4094D03*
X6382Y4094D03*
X6682Y4194D03*
X6382Y4194D03*
X6682Y4294D03*
X6382Y4294D03*
X6682Y4394D03*
X6382Y4394D03*
X6682Y4494D03*
X6382Y4494D03*
X6682Y4594D03*
X6382Y4594D03*
X6682Y4694D03*
X6382Y4694D03*
X6682Y4794D03*
X6382Y4794D03*
X5882Y5794D03*
X5882Y5494D03*
X5782Y5794D03*
X5782Y5494D03*
X5682Y5794D03*
X5682Y5494D03*
X5582Y5794D03*
X5582Y5494D03*
X5482Y5794D03*
X5482Y5494D03*
X5382Y5794D03*
X5382Y5494D03*
X5282Y5794D03*
X5282Y5494D03*
X5182Y5794D03*
X5182Y5494D03*
X3082Y5794D03*
X3082Y5494D03*
X2982Y5794D03*
X2982Y5494D03*
X2882Y5794D03*
X2882Y5494D03*
X2782Y5794D03*
X2782Y5494D03*
X2682Y5794D03*
X2682Y5494D03*
X2582Y5794D03*
X2582Y5494D03*
X2482Y5794D03*
X2482Y5494D03*
X2382Y5794D03*
X2382Y5494D03*
G54D10*
X3782Y7494D03*
X8982Y394D03*
X2382Y5194D03*
X6082Y4794D03*
X1282Y4094D03*
X5982Y3794D03*
G54D12*
X882Y2894D03*
X882Y3194D03*
X982Y2894D03*
X982Y3194D03*
X1082Y2894D03*
X1082Y3194D03*
X1182Y2894D03*
X1182Y3194D03*
X1282Y2894D03*
X1282Y3194D03*
X1382Y2894D03*
X1382Y3194D03*
X1482Y2894D03*
X1482Y3194D03*
X1582Y2894D03*
X1582Y3194D03*
G54D10*
X1782Y3494D03*
X3182Y3394D03*
G54D12*
X2482Y1794D03*
X2582Y1794D03*
X2682Y1794D03*
X1882Y1794D03*
X1982Y1794D03*
X2082Y1794D03*
X1582Y1794D03*
X1682Y1794D03*
X1782Y1794D03*
X1282Y1794D03*
X1382Y1794D03*
X1482Y1794D03*
X182Y1894D03*
X182Y1994D03*
X182Y2094D03*
X2182Y1794D03*
X2282Y1794D03*
X2382Y1794D03*
X3982Y1794D03*
X4082Y1794D03*
X4182Y1794D03*
X2782Y1794D03*
X2882Y1794D03*
X2982Y1794D03*
X3082Y1794D03*
X3182Y1794D03*
X3282Y1794D03*
X3682Y1794D03*
X3782Y1794D03*
X3882Y1794D03*
X3382Y1794D03*
X3482Y1794D03*
X3582Y1794D03*
X9782Y6494D03*
X9782Y6594D03*
X9782Y6694D03*
X9782Y6194D03*
X9782Y6294D03*
X9782Y6394D03*
X9782Y5894D03*
X9782Y5994D03*
X9782Y6094D03*
X9782Y5594D03*
X9782Y5694D03*
X9782Y5794D03*
X9782Y5294D03*
X9782Y5394D03*
X9782Y5494D03*
X9782Y4994D03*
X9782Y5094D03*
X9782Y5194D03*
X9782Y4594D03*
X9782Y4694D03*
X9782Y4794D03*
X9782Y4294D03*
X9782Y4394D03*
X9782Y4494D03*
X9782Y6794D03*
X9782Y6894D03*
X9782Y6994D03*
X8878Y6583D03*
X8778Y6583D03*
X8678Y6583D03*
X9782Y3994D03*
X9782Y4094D03*
X9782Y4194D03*
X9782Y3694D03*
X9782Y3794D03*
X9782Y3894D03*
X9782Y3394D03*
X9782Y3494D03*
X9782Y3594D03*
X9782Y3094D03*
X9782Y3194D03*
X9782Y3294D03*
X9782Y2794D03*
X9782Y2894D03*
X9782Y2994D03*
X9782Y2494D03*
X9782Y2594D03*
X9782Y2694D03*
X2982Y6594D03*
X3082Y6594D03*
X3182Y6594D03*
X3382Y6594D03*
X3482Y6594D03*
X3582Y6594D03*
X4182Y6594D03*
X4282Y6594D03*
X4382Y6594D03*
X4582Y6594D03*
X4682Y6594D03*
X4782Y6594D03*
X4882Y6594D03*
X4982Y6594D03*
X5082Y6594D03*
X5182Y6594D03*
X5282Y6594D03*
X5382Y6594D03*
X5582Y6594D03*
X5682Y6594D03*
X5782Y6594D03*
X5982Y6594D03*
X6082Y6594D03*
X6182Y6594D03*
X6482Y6594D03*
X6582Y6594D03*
X6682Y6594D03*
X6882Y6594D03*
X6982Y6594D03*
X7082Y6594D03*
X7282Y6594D03*
X7382Y6594D03*
X7482Y6594D03*
X7782Y6594D03*
X7882Y6594D03*
X7982Y6594D03*
X8282Y6594D03*
X8382Y6594D03*
X8482Y6594D03*
X2582Y6594D03*
X2682Y6594D03*
X2782Y6594D03*
X2182Y6594D03*
X2282Y6594D03*
X2382Y6594D03*
X3782Y6594D03*
X3882Y6594D03*
X3982Y6594D03*
G54D10*
X1982Y5794D03*
X1982Y7294D03*
G54D12*
X4282Y1794D03*
X4382Y1794D03*
X4482Y1794D03*
X982Y1794D03*
X1082Y1794D03*
X1182Y1794D03*
X10482Y1794D03*
X10582Y1794D03*
X10682Y1794D03*
X10082Y1794D03*
X10182Y1794D03*
X10282Y1794D03*
X7782Y1694D03*
X7882Y1694D03*
X7982Y1694D03*
X4582Y1794D03*
X4682Y1794D03*
X4782Y1794D03*
X8882Y1794D03*
X8982Y1794D03*
X9082Y1794D03*
X8182Y1794D03*
X8282Y1794D03*
X8382Y1794D03*
X8482Y1794D03*
X8582Y1794D03*
X8682Y1794D03*
X9282Y1794D03*
X9382Y1794D03*
X9482Y1794D03*
X9682Y1794D03*
X9782Y1794D03*
X9882Y1794D03*
G54D10*
X8682Y7294D03*
X10982Y7094D03*
X10982Y6694D03*
X10982Y6394D03*
X10982Y6094D03*
X10982Y5794D03*
X10982Y5194D03*
X10982Y5494D03*
X10982Y4794D03*
X10982Y4494D03*
X10982Y4194D03*
X10982Y3894D03*
X10982Y3594D03*
X10982Y7294D03*
X10982Y3294D03*
X10982Y2994D03*
X10982Y2694D03*
X10982Y1494D03*
X982Y794D03*
X1282Y1394D03*
X1582Y1394D03*
X1882Y1394D03*
X2182Y1394D03*
X2482Y1394D03*
X2782Y1394D03*
X3082Y1394D03*
X3382Y1394D03*
X3682Y1394D03*
X3982Y1394D03*
X4282Y1394D03*
X4582Y1394D03*
X7782Y1394D03*
X8182Y1394D03*
X8482Y1394D03*
X8882Y1394D03*
X9282Y1394D03*
X9682Y1394D03*
X10082Y1394D03*
X10482Y794D03*
X10682Y1494D03*
X9882Y1494D03*
X9482Y1494D03*
X8382Y1494D03*
X7982Y1494D03*
X4482Y1494D03*
X2682Y1494D03*
X2082Y1494D03*
X1782Y1494D03*
X1482Y1494D03*
X1182Y1494D03*
X3582Y1494D03*
X3882Y1494D03*
X4182Y1494D03*
X4782Y1494D03*
X9082Y1494D03*
X10282Y1494D03*
X5282Y4694D03*
G54D12*
X382Y1794D03*
X482Y1794D03*
X582Y1794D03*
X682Y1794D03*
X782Y1794D03*
X882Y1794D03*
G54D10*
X882Y1494D03*
G54D11*
X182Y5794D03*
X182Y5594D03*
X182Y5394D03*
X182Y5194D03*
X182Y4994D03*
G54D13*
X682Y1243D03*
X682Y1294D03*
X8282Y6843D03*
X8282Y6894D03*
X7782Y6843D03*
X7782Y6894D03*
X7282Y6843D03*
X7282Y6894D03*
X6882Y6843D03*
X6882Y6894D03*
X6482Y6843D03*
X6482Y6894D03*
X5982Y6843D03*
X5982Y6894D03*
X5182Y6843D03*
X5182Y6894D03*
X5582Y6843D03*
X5582Y6894D03*
X4982Y6843D03*
X4982Y6894D03*
X4582Y6843D03*
X4582Y6894D03*
X4182Y6843D03*
X4182Y6894D03*
X3782Y6943D03*
X3782Y6994D03*
X3382Y6943D03*
X3382Y6994D03*
X2982Y6943D03*
X2982Y6994D03*
X2582Y6943D03*
X2582Y6994D03*
X2182Y6943D03*
X2182Y6994D03*
G54D14*
X11531Y6894D03*
X11582Y6894D03*
G54D13*
X8882Y6843D03*
X8882Y6894D03*
G54D14*
X11531Y6494D03*
X11582Y6494D03*
X11531Y6194D03*
X11582Y6194D03*
X11531Y5894D03*
X11582Y5894D03*
X11531Y5594D03*
X11582Y5594D03*
X11531Y5294D03*
X11582Y5294D03*
X11531Y4994D03*
X11582Y4994D03*
X11531Y4594D03*
X11582Y4594D03*
X11531Y4294D03*
X11582Y4294D03*
X11531Y3994D03*
X11582Y3994D03*
X11531Y3694D03*
X11582Y3694D03*
X11531Y3394D03*
X11582Y3394D03*
X11531Y3094D03*
X11582Y3094D03*
X11531Y2794D03*
X11582Y2794D03*
X11531Y2494D03*
X11582Y2494D03*
G54D13*
X10482Y1243D03*
X10482Y1294D03*
X10082Y1243D03*
X10082Y1294D03*
X9682Y1243D03*
X9682Y1294D03*
X9282Y1243D03*
X9282Y1294D03*
X8882Y1243D03*
X8882Y1294D03*
X8482Y1243D03*
X8482Y1294D03*
X8182Y1243D03*
X8182Y1294D03*
X7782Y1194D03*
X7782Y1246D03*
X4582Y1243D03*
X4582Y1294D03*
X4282Y1243D03*
X4282Y1294D03*
X3982Y1243D03*
X3982Y1294D03*
X3682Y1243D03*
X3682Y1294D03*
X3382Y1243D03*
X3382Y1294D03*
X3082Y1243D03*
X3082Y1294D03*
X2782Y1243D03*
X2782Y1294D03*
X2482Y1243D03*
X2482Y1294D03*
X2182Y1243D03*
X2182Y1294D03*
X1882Y1243D03*
X1882Y1294D03*
X1582Y1243D03*
X1582Y1294D03*
X1282Y1243D03*
X1282Y1294D03*
X982Y1243D03*
X982Y1294D03*
X382Y1243D03*
X382Y1294D03*
X182Y1243D03*
X182Y1294D03*
G54D15*
X2482Y2894D03*
X6682Y1994D03*
X6682Y3094D03*
X6682Y4094D03*
X5882Y5794D03*
X3082Y5794D03*
X882Y2894D03*
G54D16*
X2482Y5080D02*
X2482Y4808D01*
D02*
X3269Y4794D02*
X3096Y4794D01*
D02*
X3082Y4808D02*
X3081Y5080D01*
D02*
X1282Y4108D02*
X1280Y4282D01*
D02*
X5582Y4408D02*
X5582Y4881D01*
D02*
X5969Y4894D02*
X5596Y4894D01*
D02*
X5682Y4108D02*
X5682Y4681D01*
D02*
X6082Y3308D02*
X6082Y4781D01*
D02*
X6359Y3294D02*
X6096Y3294D01*
G54D17*
D02*
X5382Y2913D02*
X5382Y3375D01*
G54D16*
D02*
X6182Y1808D02*
X6182Y2081D01*
D02*
X7679Y2594D02*
X6705Y2594D01*
D02*
X10584Y2394D02*
X9484Y2394D01*
D02*
X9484Y2394D02*
X9484Y2493D01*
D02*
X9484Y2493D02*
X7784Y2493D01*
D02*
X7784Y2493D02*
X7784Y2595D01*
D02*
X7784Y2595D02*
X7679Y2594D01*
D02*
X10582Y1817D02*
X10584Y2394D01*
D02*
X3481Y3296D02*
X3481Y2707D01*
D02*
X2696Y3294D02*
X3481Y3296D01*
D02*
X5382Y2307D02*
X5382Y2881D01*
D02*
X5483Y2408D02*
X5482Y3481D01*
D02*
X5782Y2509D02*
X5782Y3581D01*
D02*
X5672Y2003D02*
X5681Y1994D01*
D02*
X5681Y1994D02*
X5681Y2583D01*
D02*
X5681Y2610D02*
X5682Y3081D01*
D02*
X8280Y1897D02*
X7285Y1897D01*
D02*
X7285Y1897D02*
X7285Y1994D01*
D02*
X7285Y1994D02*
X6705Y1994D01*
D02*
X8282Y1817D02*
X8280Y1897D01*
D02*
X8584Y1994D02*
X8582Y1817D01*
D02*
X7382Y1994D02*
X8584Y1994D01*
D02*
X7382Y2097D02*
X7382Y1994D01*
D02*
X6705Y2094D02*
X7382Y2097D01*
D02*
X3782Y6951D02*
X3782Y6986D01*
D02*
X2583Y5894D02*
X2582Y5817D01*
D02*
X2881Y6093D02*
X2783Y6093D01*
D02*
X2985Y6093D02*
X2881Y6093D01*
D02*
X2783Y6093D02*
X2782Y5817D01*
D02*
X2985Y6295D02*
X2985Y6093D01*
D02*
X3482Y6293D02*
X2985Y6295D01*
D02*
X3482Y6571D02*
X3482Y6293D01*
D02*
X3083Y6394D02*
X3082Y6571D01*
D02*
X2881Y6393D02*
X3083Y6394D01*
D02*
X2881Y6197D02*
X2881Y6394D01*
D02*
X2684Y6196D02*
X2881Y6197D01*
D02*
X2682Y5817D02*
X2684Y6196D01*
D02*
X2684Y6293D02*
X2583Y6293D01*
D02*
X2583Y6293D02*
X2583Y5995D01*
D02*
X2583Y5995D02*
X2583Y5894D01*
D02*
X2682Y6571D02*
X2684Y6293D01*
D02*
X6482Y6835D02*
X6482Y6617D01*
D02*
X5369Y4894D02*
X4196Y4894D01*
D02*
X5482Y3708D02*
X5482Y4281D01*
D02*
X8869Y7494D02*
X8296Y7494D01*
D02*
X11681Y7495D02*
X8896Y7494D01*
D02*
X11682Y6908D02*
X11681Y7495D01*
D02*
X8882Y7070D02*
X8882Y6903D01*
D02*
X8882Y6835D02*
X8879Y6606D01*
D02*
X8891Y7415D02*
X8884Y7481D01*
G54D17*
D02*
X682Y813D02*
X682Y964D01*
D02*
X382Y813D02*
X382Y964D01*
G54D16*
D02*
X2969Y3894D02*
X2696Y3894D01*
D02*
X2496Y3694D02*
X3069Y3694D01*
D02*
X7583Y3992D02*
X7583Y4896D01*
D02*
X7583Y4896D02*
X9683Y4896D01*
D02*
X9683Y4896D02*
X9683Y5093D01*
D02*
X9683Y5093D02*
X9759Y5094D01*
D02*
X6196Y3994D02*
X7583Y3992D01*
D02*
X5682Y3681D02*
X5683Y3195D01*
D02*
X5683Y3995D02*
X5682Y3708D01*
D02*
X5683Y3195D02*
X5682Y3108D01*
D02*
X5682Y4081D02*
X5683Y3995D01*
D02*
X682Y6694D02*
X858Y6694D01*
D02*
X682Y7494D02*
X682Y6694D01*
D02*
X2169Y7494D02*
X682Y7494D01*
D02*
X882Y7294D02*
X882Y6819D01*
D02*
X1969Y7294D02*
X882Y7294D01*
G54D17*
D02*
X10682Y1513D02*
X10682Y1766D01*
G54D16*
D02*
X5781Y7296D02*
X5782Y6617D01*
D02*
X5381Y7293D02*
X5781Y7296D01*
D02*
X5382Y6617D02*
X5381Y7293D01*
D02*
X5083Y7296D02*
X5082Y6617D01*
D02*
X4782Y7296D02*
X5083Y7296D01*
D02*
X4782Y6617D02*
X4782Y7296D01*
D02*
X6683Y7295D02*
X6682Y6617D01*
D02*
X6181Y7295D02*
X6683Y7295D01*
D02*
X6182Y6617D02*
X6181Y7295D01*
D02*
X7482Y7295D02*
X7482Y6617D01*
D02*
X7082Y7295D02*
X7482Y7295D01*
D02*
X7082Y6617D02*
X7082Y7295D01*
D02*
X8483Y7294D02*
X8482Y6617D01*
D02*
X10969Y7294D02*
X8483Y7294D01*
D02*
X8483Y7294D02*
X8482Y6617D01*
D02*
X7983Y7294D02*
X8483Y7294D01*
D02*
X7982Y6617D02*
X7983Y7294D01*
D02*
X7983Y7294D02*
X7482Y7295D01*
D02*
X7482Y7295D02*
X7482Y6617D01*
D02*
X7982Y6617D02*
X7983Y7294D01*
D02*
X7082Y7295D02*
X6683Y7295D01*
D02*
X6683Y7295D02*
X6682Y6617D01*
D02*
X7082Y6617D02*
X7082Y7295D01*
D02*
X6181Y7295D02*
X6182Y6617D01*
D02*
X5781Y7296D02*
X6181Y7295D01*
D02*
X5782Y6617D02*
X5781Y7296D01*
D02*
X5381Y7293D02*
X5382Y6617D01*
D02*
X5083Y7296D02*
X5381Y7293D01*
D02*
X5082Y6617D02*
X5083Y7296D01*
D02*
X2381Y7295D02*
X2382Y6617D01*
D02*
X1996Y7294D02*
X2381Y7295D01*
D02*
X4381Y7296D02*
X4782Y7296D01*
D02*
X4782Y7296D02*
X4782Y6617D01*
D02*
X4382Y6617D02*
X4381Y7296D01*
D02*
X3983Y7296D02*
X3982Y6617D01*
D02*
X4381Y7296D02*
X3983Y7296D01*
D02*
X4382Y6617D02*
X4381Y7296D01*
D02*
X3582Y7296D02*
X3582Y6617D01*
D02*
X3681Y7294D02*
X3582Y7296D01*
D02*
X3882Y7295D02*
X3681Y7294D01*
D02*
X3983Y7296D02*
X3882Y7295D01*
D02*
X3982Y6617D02*
X3983Y7296D01*
D02*
X3182Y7296D02*
X3182Y6617D01*
D02*
X2783Y7296D02*
X3182Y7296D01*
D02*
X2782Y6617D02*
X2783Y7296D01*
D02*
X3882Y7295D02*
X3182Y7296D01*
D02*
X3182Y7296D02*
X3182Y6617D01*
D02*
X3582Y7296D02*
X3882Y7295D01*
D02*
X3582Y6617D02*
X3582Y7296D01*
D02*
X2783Y7296D02*
X2381Y7295D01*
D02*
X2381Y7295D02*
X2382Y6617D01*
D02*
X2782Y6617D02*
X2783Y7296D01*
D02*
X2482Y5896D02*
X2482Y5817D01*
D02*
X2281Y5894D02*
X2482Y5896D01*
D02*
X2282Y6571D02*
X2281Y5894D01*
D02*
X3881Y6394D02*
X3882Y6571D01*
D02*
X5682Y6494D02*
X5682Y6571D01*
D02*
X4684Y6495D02*
X4683Y6571D01*
D02*
X4684Y6394D02*
X4684Y6495D01*
D02*
X3583Y6394D02*
X3881Y6394D01*
D02*
X5582Y6294D02*
X5782Y6294D01*
D02*
X5782Y6294D02*
X6583Y6294D01*
D02*
X6583Y6294D02*
X6582Y6571D01*
D02*
X5582Y5817D02*
X5582Y6294D01*
D02*
X5482Y6394D02*
X6081Y6394D01*
D02*
X6081Y6394D02*
X6082Y6571D01*
D02*
X5482Y5817D02*
X5482Y6394D01*
D02*
X5382Y6494D02*
X5682Y6494D01*
D02*
X5382Y5817D02*
X5382Y6494D01*
D02*
X5280Y6495D02*
X5282Y5817D01*
D02*
X5282Y6571D02*
X5280Y6495D01*
D02*
X4968Y5394D02*
X2985Y5394D01*
D02*
X2985Y5394D02*
X2983Y5471D01*
D02*
X4482Y6295D02*
X4482Y6394D01*
D02*
X4482Y6393D02*
X4684Y6394D01*
D02*
X4181Y6295D02*
X4482Y6295D01*
D02*
X4181Y6197D02*
X4181Y6295D01*
D02*
X3881Y6197D02*
X4181Y6197D01*
D02*
X3881Y5995D02*
X3881Y6197D01*
D02*
X3280Y5995D02*
X3881Y5995D01*
D02*
X3280Y5793D02*
X3280Y5995D01*
D02*
X3105Y5794D02*
X3280Y5793D01*
D02*
X4083Y6293D02*
X4083Y6394D01*
D02*
X4280Y6394D02*
X4282Y6571D01*
D02*
X4083Y6393D02*
X4280Y6394D01*
D02*
X2985Y5896D02*
X3181Y5896D01*
D02*
X3181Y5896D02*
X3181Y6093D01*
D02*
X3181Y6093D02*
X3782Y6093D01*
D02*
X3782Y6093D02*
X3782Y6295D01*
D02*
X3782Y6295D02*
X4083Y6293D01*
D02*
X2983Y5817D02*
X2985Y5896D01*
D02*
X3083Y6197D02*
X3583Y6196D01*
D02*
X3583Y6196D02*
X3583Y6394D01*
D02*
X2881Y5995D02*
X3083Y5995D01*
D02*
X3083Y5995D02*
X3083Y6197D01*
D02*
X2882Y5817D02*
X2881Y5995D01*
D02*
X9283Y5296D02*
X9284Y5995D01*
D02*
X9284Y6296D02*
X9759Y6294D01*
D02*
X9284Y5995D02*
X9284Y6296D01*
D02*
X7182Y4395D02*
X7182Y5296D01*
D02*
X7182Y5296D02*
X9283Y5296D01*
D02*
X6705Y4394D02*
X7182Y4395D01*
D02*
X9183Y5392D02*
X9183Y6594D01*
D02*
X9183Y6594D02*
X9759Y6594D01*
D02*
X7081Y4492D02*
X7081Y5392D01*
D02*
X7081Y5392D02*
X9183Y5392D01*
D02*
X6705Y4494D02*
X7081Y4492D01*
D02*
X9084Y5496D02*
X9085Y6893D01*
D02*
X9085Y6893D02*
X9759Y6894D01*
D02*
X6982Y5496D02*
X7081Y5496D01*
D02*
X6982Y4596D02*
X6982Y5496D01*
D02*
X7081Y5496D02*
X9084Y5496D01*
D02*
X6705Y4595D02*
X6982Y4596D01*
D02*
X8782Y5595D02*
X8782Y6395D01*
D02*
X8782Y6395D02*
X8779Y6560D01*
D02*
X6883Y4695D02*
X6883Y5595D01*
D02*
X6883Y5595D02*
X8782Y5595D01*
D02*
X6705Y4694D02*
X6883Y4695D01*
D02*
X6185Y5194D02*
X6182Y5693D01*
D02*
X6182Y5693D02*
X8382Y5693D01*
D02*
X5796Y5194D02*
X6185Y5194D01*
D02*
X8382Y5693D02*
X8382Y6571D01*
D02*
X7881Y5795D02*
X7882Y6571D01*
D02*
X5905Y5794D02*
X7881Y5795D01*
D02*
X5782Y6094D02*
X7382Y6094D01*
D02*
X7382Y6094D02*
X7382Y6571D01*
D02*
X5782Y5817D02*
X5782Y6094D01*
D02*
X5682Y6094D02*
X5682Y5817D01*
D02*
X5682Y6194D02*
X5682Y6094D01*
D02*
X6983Y6194D02*
X5682Y6194D01*
D02*
X6982Y6571D02*
X6983Y6194D01*
D02*
X8283Y3796D02*
X9759Y3794D01*
D02*
X8283Y3393D02*
X8283Y3796D01*
D02*
X6705Y3394D02*
X8283Y3393D01*
D02*
X8180Y4094D02*
X9759Y4094D01*
D02*
X8180Y3491D02*
X8180Y4094D01*
D02*
X6705Y3494D02*
X8180Y3491D01*
D02*
X8084Y4396D02*
X9759Y4394D01*
D02*
X8084Y3594D02*
X8084Y4396D01*
D02*
X6705Y3594D02*
X8084Y3594D01*
D02*
X7886Y4698D02*
X9759Y4694D01*
D02*
X7886Y3697D02*
X7886Y4698D01*
D02*
X6705Y3694D02*
X7886Y3697D01*
D02*
X7481Y4997D02*
X9581Y4997D01*
D02*
X9581Y4997D02*
X9581Y5392D01*
D02*
X9581Y5392D02*
X9759Y5394D01*
D02*
X7481Y4094D02*
X7481Y4997D01*
D02*
X6705Y4094D02*
X7481Y4094D01*
D02*
X7379Y4196D02*
X6705Y4194D01*
D02*
X7379Y5093D02*
X7379Y4196D01*
D02*
X9479Y5093D02*
X7379Y5093D01*
D02*
X9479Y5697D02*
X9479Y5093D01*
D02*
X9759Y5695D02*
X9479Y5697D01*
D02*
X9383Y5192D02*
X9383Y5993D01*
D02*
X9513Y5990D02*
X9759Y5994D01*
D02*
X9383Y5993D02*
X9513Y5990D01*
D02*
X7282Y4296D02*
X7282Y5192D01*
D02*
X7282Y5192D02*
X9383Y5192D01*
D02*
X6705Y4294D02*
X7282Y4296D01*
D02*
X10982Y3008D02*
X10982Y7281D01*
D02*
X8984Y2097D02*
X7679Y2097D01*
D02*
X7479Y2097D02*
X7382Y2194D01*
D02*
X7679Y2097D02*
X7479Y2097D01*
D02*
X7382Y2194D02*
X7182Y2194D01*
D02*
X7182Y2194D02*
X7085Y2194D01*
D02*
X7085Y2194D02*
X6982Y2194D01*
D02*
X6982Y2194D02*
X6885Y2194D01*
D02*
X6885Y2194D02*
X6781Y2194D01*
D02*
X6781Y2194D02*
X6705Y2194D01*
D02*
X8982Y1817D02*
X8984Y2097D01*
D02*
X9385Y2097D02*
X9184Y2194D01*
D02*
X9184Y2194D02*
X7983Y2194D01*
D02*
X7983Y2194D02*
X7880Y2194D01*
D02*
X7880Y2194D02*
X7582Y2194D01*
D02*
X7582Y2194D02*
X7479Y2194D01*
D02*
X7479Y2194D02*
X7479Y2297D01*
D02*
X7479Y2297D02*
X6705Y2294D01*
D02*
X9382Y1817D02*
X9385Y2097D01*
D02*
X9785Y1994D02*
X9785Y2194D01*
D02*
X9785Y2194D02*
X9281Y2194D01*
D02*
X9281Y2194D02*
X9281Y2297D01*
D02*
X9281Y2297D02*
X7582Y2297D01*
D02*
X7582Y2297D02*
X7582Y2394D01*
D02*
X7582Y2394D02*
X7382Y2394D01*
D02*
X7382Y2394D02*
X6705Y2394D01*
D02*
X9783Y1817D02*
X9785Y1994D01*
D02*
X10179Y2297D02*
X9385Y2297D01*
D02*
X9385Y2297D02*
X9385Y2394D01*
D02*
X9385Y2394D02*
X7679Y2394D01*
D02*
X7679Y2394D02*
X7679Y2497D01*
D02*
X7679Y2497D02*
X6705Y2494D01*
D02*
X10182Y1817D02*
X10179Y2297D01*
D02*
X8283Y2595D02*
X9759Y2594D01*
D02*
X7882Y2595D02*
X8283Y2595D01*
D02*
X7882Y2796D02*
X7882Y2595D01*
D02*
X7384Y2796D02*
X7882Y2796D01*
D02*
X7282Y2795D02*
X7384Y2796D01*
D02*
X7282Y2992D02*
X7282Y2795D01*
D02*
X6284Y2992D02*
X7282Y2992D01*
D02*
X6284Y3195D02*
X6284Y2992D01*
D02*
X6359Y3195D02*
X6284Y3195D01*
D02*
X8283Y2892D02*
X9759Y2894D01*
D02*
X8283Y3093D02*
X8283Y2892D01*
D02*
X6705Y3094D02*
X8283Y3093D01*
D02*
X8379Y3197D02*
X9759Y3194D01*
D02*
X8283Y3197D02*
X8379Y3197D01*
D02*
X6705Y3194D02*
X8283Y3197D01*
D02*
X8581Y3495D02*
X9759Y3494D01*
D02*
X8382Y3495D02*
X8581Y3495D01*
D02*
X8382Y3296D02*
X8382Y3495D01*
D02*
X6705Y3294D02*
X8382Y3296D01*
G54D17*
D02*
X5182Y1493D02*
X10963Y1494D01*
D02*
X3301Y1494D02*
X5182Y1493D01*
G54D16*
D02*
X2982Y1894D02*
X2884Y1993D01*
D02*
X2884Y1993D02*
X2583Y2193D01*
D02*
X2583Y2193D02*
X2582Y2871D01*
D02*
X3181Y1893D02*
X2982Y1894D01*
D02*
X3182Y1817D02*
X3181Y1893D01*
D02*
X2983Y1995D02*
X2685Y2192D01*
D02*
X3482Y1894D02*
X2983Y1995D01*
D02*
X2685Y2192D02*
X2682Y2871D01*
D02*
X3482Y1817D02*
X3482Y1894D01*
D02*
X3181Y1994D02*
X2780Y2194D01*
D02*
X2780Y2194D02*
X2782Y2871D01*
D02*
X3782Y1897D02*
X3181Y1994D01*
D02*
X3782Y1817D02*
X3782Y1897D01*
D02*
X4081Y1895D02*
X3881Y1895D01*
D02*
X3181Y2098D02*
X2980Y2194D01*
D02*
X2980Y2194D02*
X2884Y2290D01*
D02*
X2884Y2290D02*
X2882Y2871D01*
D02*
X3881Y1895D02*
X3181Y2098D01*
D02*
X4082Y1817D02*
X4081Y1895D01*
D02*
X4383Y1896D02*
X4383Y1817D01*
D02*
X4281Y1893D02*
X4383Y1896D01*
D02*
X3880Y1994D02*
X4281Y1893D01*
D02*
X3180Y2196D02*
X3880Y1994D01*
D02*
X2982Y2293D02*
X3180Y2196D01*
D02*
X2982Y2871D02*
X2982Y2293D01*
D02*
X4281Y1997D02*
X3584Y2295D01*
D02*
X3584Y2295D02*
X3084Y2395D01*
D02*
X4681Y1994D02*
X4281Y1997D01*
D02*
X3084Y2395D02*
X3082Y2871D01*
D02*
X4682Y1817D02*
X4681Y1994D01*
G54D17*
D02*
X10282Y1513D02*
X10282Y1766D01*
D02*
X2982Y1513D02*
X2982Y1766D01*
D02*
X3001Y1494D02*
X3263Y1494D01*
G54D16*
D02*
X2182Y2092D02*
X2183Y2894D01*
D02*
X2283Y2092D02*
X2182Y2092D01*
D02*
X2183Y2894D02*
X2182Y3181D01*
D02*
X2584Y1992D02*
X2283Y1992D01*
D02*
X2283Y1992D02*
X2283Y2092D01*
D02*
X2582Y1817D02*
X2584Y1992D01*
D02*
X2484Y2092D02*
X2484Y2695D01*
D02*
X2484Y2695D02*
X2482Y2871D01*
D02*
X2884Y1893D02*
X2684Y1993D01*
D02*
X2684Y1993D02*
X2584Y2092D01*
D02*
X2584Y2092D02*
X2484Y2092D01*
D02*
X2883Y1817D02*
X2884Y1893D01*
G54D17*
D02*
X1201Y1494D02*
X2363Y1494D01*
D02*
X2785Y1496D02*
X2963Y1495D01*
D02*
X2401Y1494D02*
X2785Y1496D01*
D02*
X3882Y1513D02*
X3882Y1766D01*
D02*
X3582Y1513D02*
X3582Y1766D01*
D02*
X8392Y1511D02*
X8383Y1496D01*
D02*
X8383Y1496D02*
X8382Y1766D01*
D02*
X8681Y1496D02*
X8682Y1766D01*
D02*
X2682Y1766D02*
X2682Y1513D01*
D02*
X9063Y1494D02*
X8681Y1496D01*
D02*
X4782Y1513D02*
X4782Y1766D01*
D02*
X4482Y1513D02*
X4482Y1766D01*
D02*
X4182Y1513D02*
X4182Y1766D01*
G54D16*
D02*
X187Y3090D02*
X184Y3395D01*
D02*
X184Y3395D02*
X980Y3395D01*
D02*
X980Y3395D02*
X982Y3217D01*
D02*
X182Y2017D02*
X187Y3090D01*
D02*
X882Y2796D02*
X882Y2871D01*
D02*
X579Y2796D02*
X882Y2796D01*
D02*
X485Y1817D02*
X579Y2796D01*
D02*
X884Y1997D02*
X884Y2092D01*
D02*
X884Y2691D02*
X985Y2691D01*
D02*
X985Y2691D02*
X983Y2871D01*
D02*
X884Y2092D02*
X884Y2691D01*
D02*
X785Y1994D02*
X884Y1997D01*
D02*
X783Y1817D02*
X785Y1994D01*
D02*
X1080Y2597D02*
X1080Y2691D01*
D02*
X1080Y2691D02*
X1082Y2871D01*
D02*
X1080Y1994D02*
X1080Y1997D01*
D02*
X1080Y1997D02*
X1080Y2597D01*
D02*
X1082Y1817D02*
X1080Y1994D01*
D02*
X1282Y2092D02*
X1181Y2092D01*
D02*
X1181Y2092D02*
X1182Y2871D01*
D02*
X1380Y1994D02*
X1282Y1997D01*
D02*
X1282Y1997D02*
X1282Y2092D01*
D02*
X1382Y1817D02*
X1380Y1994D01*
D02*
X1585Y1895D02*
X1682Y1894D01*
D02*
X1585Y2093D02*
X1585Y1895D01*
D02*
X1382Y2093D02*
X1585Y2093D01*
D02*
X1682Y1894D02*
X1682Y1817D01*
D02*
X1383Y2193D02*
X1382Y2093D01*
D02*
X1282Y2193D02*
X1383Y2193D01*
D02*
X1282Y2871D02*
X1282Y2193D01*
D02*
X1783Y1994D02*
X1382Y2296D01*
D02*
X1382Y2296D02*
X1382Y2871D01*
D02*
X1983Y1894D02*
X1881Y1994D01*
D02*
X1881Y1994D02*
X1783Y1994D01*
D02*
X1983Y1817D02*
X1983Y1894D01*
D02*
X2183Y1894D02*
X1481Y2395D01*
D02*
X1481Y2395D02*
X1482Y2871D01*
D02*
X2266Y1811D02*
X2183Y1894D01*
G54D17*
D02*
X2382Y1513D02*
X2382Y1766D01*
G54D16*
D02*
X1982Y5794D02*
X1984Y5795D01*
D02*
X1982Y7281D02*
X1982Y5808D01*
D02*
X1996Y5794D02*
X2359Y5794D01*
D02*
X1984Y5795D02*
X1496Y5794D01*
D02*
X2182Y5596D02*
X1482Y5596D01*
D02*
X2182Y4896D02*
X2182Y5596D01*
D02*
X1482Y5793D02*
X1481Y5781D01*
D02*
X1482Y5596D02*
X1482Y5793D01*
D02*
X2369Y4895D02*
X2182Y4896D01*
G54D17*
D02*
X7981Y1593D02*
X7982Y1513D01*
D02*
X7982Y1666D02*
X7981Y1593D01*
G54D16*
D02*
X8269Y7494D02*
X7796Y7494D01*
D02*
X6896Y7494D02*
X7769Y7494D01*
D02*
X2196Y7494D02*
X6869Y7494D01*
G54D17*
D02*
X3282Y1513D02*
X3282Y1766D01*
D02*
X1601Y794D02*
X1863Y794D01*
D02*
X1080Y797D02*
X1263Y795D01*
D02*
X1301Y794D02*
X1563Y794D01*
D02*
X1901Y794D02*
X2163Y794D01*
D02*
X2201Y794D02*
X2463Y794D01*
D02*
X2501Y794D02*
X2763Y794D01*
D02*
X2801Y794D02*
X3063Y794D01*
D02*
X3101Y794D02*
X3363Y794D01*
D02*
X3401Y794D02*
X3663Y794D01*
D02*
X3701Y794D02*
X3963Y794D01*
D02*
X4001Y794D02*
X4263Y794D01*
D02*
X4301Y794D02*
X4563Y794D01*
D02*
X4601Y794D02*
X7763Y794D01*
D02*
X7801Y794D02*
X8163Y794D01*
D02*
X8201Y794D02*
X8463Y794D01*
D02*
X8501Y794D02*
X8863Y794D01*
D02*
X8901Y794D02*
X9263Y794D01*
D02*
X9301Y794D02*
X9663Y794D01*
D02*
X10101Y794D02*
X10463Y794D01*
G54D16*
D02*
X11682Y2808D02*
X11682Y3081D01*
D02*
X11682Y3108D02*
X11682Y3381D01*
D02*
X11682Y3408D02*
X11682Y3681D01*
D02*
X11682Y3708D02*
X11682Y3981D01*
D02*
X11682Y4008D02*
X11682Y4281D01*
D02*
X11682Y4308D02*
X11682Y4581D01*
D02*
X11682Y4608D02*
X11682Y4981D01*
D02*
X11682Y5008D02*
X11682Y5281D01*
D02*
X11682Y5308D02*
X11682Y5581D01*
D02*
X11682Y5608D02*
X11682Y5881D01*
D02*
X11682Y5908D02*
X11682Y6181D01*
D02*
X11682Y6208D02*
X11682Y6481D01*
D02*
X11682Y6508D02*
X11682Y6881D01*
G54D17*
D02*
X1001Y795D02*
X1080Y797D01*
G54D16*
D02*
X11684Y792D02*
X11682Y2481D01*
D02*
X10496Y794D02*
X11684Y792D01*
D02*
X11682Y2508D02*
X11682Y2781D01*
G54D17*
D02*
X663Y794D02*
X401Y794D01*
D02*
X184Y797D02*
X183Y964D01*
D02*
X363Y795D02*
X184Y797D01*
D02*
X885Y797D02*
X701Y795D01*
D02*
X963Y795D02*
X885Y797D01*
D02*
X182Y1125D02*
X182Y1286D01*
G54D16*
D02*
X183Y1397D02*
X182Y1871D01*
D02*
X182Y1251D02*
X183Y1397D01*
D02*
X2982Y6617D02*
X2982Y6935D01*
D02*
X2982Y7003D02*
X2982Y7070D01*
D02*
X2582Y7070D02*
X2582Y7003D01*
D02*
X2582Y6935D02*
X2582Y6617D01*
D02*
X2182Y7070D02*
X2182Y7003D01*
D02*
X2182Y6935D02*
X2182Y6617D01*
D02*
X4182Y7070D02*
X4182Y6903D01*
D02*
X4182Y6835D02*
X4182Y6617D01*
D02*
X3782Y7070D02*
X3782Y7003D01*
D02*
X3782Y6935D02*
X3782Y6617D01*
D02*
X3382Y7070D02*
X3382Y7003D01*
D02*
X3382Y6935D02*
X3382Y6617D01*
D02*
X5182Y7070D02*
X5182Y6903D01*
D02*
X5182Y6835D02*
X5182Y6617D01*
D02*
X4982Y7070D02*
X4982Y6903D01*
D02*
X4979Y6835D02*
X4891Y6616D01*
D02*
X4582Y7070D02*
X4582Y6903D01*
D02*
X4582Y6835D02*
X4582Y6617D01*
D02*
X6482Y7070D02*
X6482Y6903D01*
D02*
X5982Y7070D02*
X5982Y6903D01*
D02*
X5982Y6835D02*
X5982Y6617D01*
D02*
X5582Y7070D02*
X5582Y6903D01*
D02*
X5582Y6835D02*
X5582Y6617D01*
D02*
X7782Y7070D02*
X7782Y6903D01*
D02*
X7782Y6835D02*
X7782Y6617D01*
D02*
X7282Y7070D02*
X7282Y6903D01*
D02*
X7282Y6835D02*
X7282Y6617D01*
D02*
X6882Y7070D02*
X6882Y6903D01*
D02*
X6882Y6835D02*
X6882Y6617D01*
D02*
X11523Y6894D02*
X11207Y6894D01*
D02*
X8282Y7070D02*
X8282Y6903D01*
D02*
X8282Y6835D02*
X8282Y6617D01*
D02*
X11669Y6194D02*
X11591Y6194D01*
D02*
X11523Y6194D02*
X11307Y6194D01*
D02*
X11523Y6494D02*
X11207Y6494D01*
D02*
X11669Y6494D02*
X11591Y6494D01*
D02*
X11669Y6894D02*
X11591Y6894D01*
G54D17*
D02*
X982Y813D02*
X982Y964D01*
G54D16*
D02*
X11669Y5294D02*
X11591Y5294D01*
D02*
X11523Y5294D02*
X11307Y5294D01*
D02*
X11523Y5594D02*
X11307Y5594D01*
D02*
X11591Y5594D02*
X11669Y5594D01*
D02*
X11307Y5894D02*
X11523Y5894D01*
D02*
X11591Y5894D02*
X11669Y5894D01*
D02*
X11523Y3994D02*
X11307Y3994D01*
D02*
X11307Y4294D02*
X11523Y4294D01*
D02*
X11669Y4294D02*
X11591Y4294D01*
D02*
X11669Y4594D02*
X11591Y4594D01*
D02*
X11523Y4594D02*
X11307Y4594D01*
D02*
X11307Y4994D02*
X11523Y4994D01*
D02*
X11669Y4994D02*
X11591Y4994D01*
D02*
X11307Y3094D02*
X11523Y3094D01*
D02*
X11669Y3094D02*
X11591Y3094D01*
D02*
X11307Y3394D02*
X11523Y3394D01*
D02*
X11669Y3394D02*
X11591Y3394D01*
D02*
X11669Y3694D02*
X11591Y3694D01*
D02*
X11523Y3694D02*
X11307Y3694D01*
D02*
X11669Y3994D02*
X11591Y3994D01*
G54D17*
D02*
X10482Y1235D02*
X10482Y1125D01*
D02*
X10482Y964D02*
X10482Y813D01*
G54D16*
D02*
X11307Y2494D02*
X11523Y2494D01*
D02*
X11591Y2494D02*
X11669Y2494D01*
D02*
X11669Y2794D02*
X11591Y2794D01*
D02*
X11523Y2794D02*
X11307Y2794D01*
G54D17*
D02*
X9282Y1235D02*
X9282Y1125D01*
D02*
X9282Y813D02*
X9282Y964D01*
D02*
X9682Y1235D02*
X9682Y1125D01*
D02*
X9682Y813D02*
X9682Y964D01*
D02*
X10082Y1125D02*
X10082Y1235D01*
D02*
X8182Y1235D02*
X8182Y1125D01*
D02*
X8182Y964D02*
X8182Y813D01*
D02*
X8482Y1235D02*
X8482Y1125D01*
D02*
X8482Y813D02*
X8482Y964D01*
D02*
X8882Y1235D02*
X8882Y1125D01*
D02*
X8882Y813D02*
X8882Y964D01*
D02*
X4282Y1235D02*
X4282Y1125D01*
D02*
X4282Y964D02*
X4282Y813D01*
D02*
X4582Y1235D02*
X4582Y1125D01*
D02*
X4582Y964D02*
X4582Y813D01*
D02*
X7782Y1186D02*
X7782Y1125D01*
D02*
X7782Y964D02*
X7782Y813D01*
D02*
X3382Y1235D02*
X3382Y1125D01*
D02*
X3382Y813D02*
X3382Y964D01*
D02*
X3682Y1235D02*
X3682Y1125D01*
D02*
X3682Y813D02*
X3682Y964D01*
D02*
X3982Y1235D02*
X3982Y1125D01*
D02*
X3982Y964D02*
X3982Y813D01*
D02*
X2482Y1235D02*
X2482Y1125D01*
D02*
X2482Y813D02*
X2482Y964D01*
D02*
X2782Y1125D02*
X2782Y1235D01*
D02*
X2782Y813D02*
X2782Y964D01*
D02*
X3082Y1235D02*
X3082Y1125D01*
D02*
X3082Y964D02*
X3082Y813D01*
D02*
X1582Y1235D02*
X1582Y1125D01*
D02*
X1582Y813D02*
X1582Y964D01*
D02*
X1882Y1235D02*
X1882Y1125D01*
D02*
X1882Y964D02*
X1882Y813D01*
D02*
X2182Y1235D02*
X2182Y1125D01*
D02*
X2182Y964D02*
X2182Y813D01*
D02*
X982Y1375D02*
X982Y1303D01*
D02*
X982Y1235D02*
X982Y1125D01*
D02*
X1282Y1235D02*
X1282Y1125D01*
D02*
X1282Y813D02*
X1282Y964D01*
D02*
X682Y1292D02*
X682Y1294D01*
D02*
X682Y1375D02*
X682Y1292D01*
D02*
X682Y1235D02*
X682Y1125D01*
D02*
X2182Y1375D02*
X2182Y1303D01*
D02*
X1882Y1375D02*
X1882Y1303D01*
D02*
X1582Y1375D02*
X1582Y1303D01*
D02*
X1282Y1375D02*
X1282Y1303D01*
D02*
X398Y1387D02*
X384Y1393D01*
D02*
X382Y1235D02*
X382Y1125D01*
D02*
X384Y1393D02*
X382Y1303D01*
D02*
X3082Y1375D02*
X3082Y1303D01*
D02*
X3382Y1375D02*
X3382Y1303D01*
D02*
X2782Y1375D02*
X2782Y1303D01*
D02*
X2482Y1375D02*
X2482Y1303D01*
D02*
X4582Y1375D02*
X4582Y1303D01*
D02*
X4282Y1375D02*
X4282Y1303D01*
D02*
X3982Y1375D02*
X3982Y1303D01*
D02*
X3682Y1375D02*
X3682Y1303D01*
D02*
X9282Y1375D02*
X9282Y1303D01*
D02*
X8882Y1375D02*
X8882Y1303D01*
D02*
X8482Y1375D02*
X8482Y1303D01*
D02*
X8182Y1375D02*
X8182Y1303D01*
D02*
X7782Y1375D02*
X7782Y1254D01*
D02*
X10482Y1375D02*
X10482Y1303D01*
D02*
X10082Y1375D02*
X10082Y1303D01*
D02*
X9682Y1375D02*
X9682Y1303D01*
D02*
X2082Y1766D02*
X2082Y1513D01*
G54D16*
D02*
X1782Y1771D02*
X1782Y1508D01*
D02*
X585Y1493D02*
X869Y1494D01*
D02*
X582Y1771D02*
X585Y1493D01*
G54D17*
D02*
X9082Y1513D02*
X9082Y1766D01*
D02*
X9482Y1513D02*
X9482Y1766D01*
D02*
X9882Y1513D02*
X9882Y1766D01*
G54D16*
D02*
X882Y1508D02*
X882Y1771D01*
G54D17*
D02*
X1163Y1494D02*
X901Y1494D01*
D02*
X1182Y1513D02*
X1182Y1766D01*
D02*
X1482Y1513D02*
X1482Y1766D01*
G54D16*
D02*
X10982Y1508D02*
X10982Y2681D01*
D02*
X10969Y3294D02*
X9805Y3294D01*
D02*
X10969Y3594D02*
X9805Y3594D01*
D02*
X10969Y2994D02*
X9805Y2994D01*
D02*
X10969Y2694D02*
X9805Y2694D01*
D02*
X10982Y2708D02*
X10982Y2981D01*
D02*
X10969Y3894D02*
X9805Y3894D01*
D02*
X10969Y4194D02*
X9805Y4194D01*
D02*
X10969Y4494D02*
X9805Y4494D01*
D02*
X10969Y4794D02*
X9805Y4794D01*
D02*
X10969Y5194D02*
X9805Y5194D01*
D02*
X8682Y7281D02*
X8678Y6606D01*
D02*
X10969Y7093D02*
X9805Y6996D01*
D02*
X10969Y6694D02*
X9805Y6694D01*
D02*
X10969Y6394D02*
X9805Y6394D01*
D02*
X10969Y6094D02*
X9805Y6094D01*
D02*
X10969Y5794D02*
X9805Y5794D01*
D02*
X10969Y5494D02*
X9805Y5494D01*
D02*
X2396Y5194D02*
X5670Y5196D01*
D02*
X1985Y4492D02*
X1985Y4896D01*
D02*
X1985Y4896D02*
X1384Y4896D01*
D02*
X1384Y4896D02*
X1384Y5197D01*
D02*
X1384Y5197D02*
X396Y5194D01*
D02*
X2869Y4494D02*
X1985Y4492D01*
D02*
X2882Y5081D02*
X2882Y4508D01*
D02*
X1469Y5794D02*
X1196Y5794D01*
D02*
X1280Y4394D02*
X396Y4394D01*
D02*
X1280Y4309D02*
X1280Y4394D01*
D02*
X2669Y4294D02*
X1293Y4295D01*
D02*
X2682Y5081D02*
X2682Y4708D01*
D02*
X1280Y4694D02*
X1280Y4793D01*
D02*
X1280Y4793D02*
X396Y4794D01*
D02*
X1669Y4694D02*
X1280Y4694D01*
D02*
X1881Y4394D02*
X1881Y4694D01*
D02*
X1881Y4694D02*
X1696Y4694D01*
D02*
X2182Y4396D02*
X1881Y4394D01*
D02*
X2569Y4394D02*
X2182Y4396D01*
D02*
X2582Y5081D02*
X2582Y4608D01*
D02*
X1169Y5794D02*
X396Y5794D01*
D02*
X4684Y5793D02*
X4196Y5794D01*
D02*
X5159Y5794D02*
X4684Y5793D01*
D02*
X4169Y4894D02*
X3196Y4894D01*
D02*
X5396Y4894D02*
X5569Y4894D01*
D02*
X5381Y3995D02*
X5382Y3908D01*
D02*
X5384Y4092D02*
X5381Y3995D01*
D02*
X5382Y4194D02*
X5384Y4092D01*
D02*
X5382Y4394D02*
X5382Y4194D01*
D02*
X5382Y4881D02*
X5382Y4394D01*
D02*
X5382Y3408D02*
X5382Y3881D01*
D02*
X6682Y2881D02*
X6682Y2717D01*
D02*
X2796Y3494D02*
X3369Y3494D01*
D02*
X5269Y4294D02*
X2696Y4294D01*
D02*
X5482Y4481D02*
X5482Y4308D01*
D02*
X5482Y4781D02*
X5482Y4508D01*
D02*
X5482Y3508D02*
X5482Y3681D01*
D02*
X1282Y3608D02*
X1282Y4081D01*
D02*
X2869Y4094D02*
X1296Y4094D01*
D02*
X5083Y4609D02*
X5082Y4695D01*
D02*
X5082Y4994D02*
X5369Y4994D01*
D02*
X5082Y4695D02*
X5082Y4994D01*
D02*
X3081Y4596D02*
X5069Y4596D01*
D02*
X3081Y4396D02*
X3081Y4596D01*
D02*
X2596Y4394D02*
X3081Y4396D01*
D02*
X1384Y3893D02*
X1669Y3894D01*
D02*
X1382Y3608D02*
X1384Y3893D01*
D02*
X2669Y3894D02*
X1696Y3894D01*
D02*
X5782Y4581D02*
X5782Y3696D01*
D02*
X5782Y3696D02*
X5782Y3608D01*
D02*
X6181Y4294D02*
X6182Y5081D01*
D02*
X6169Y5094D02*
X5196Y5094D01*
D02*
X6359Y4294D02*
X6181Y4294D01*
D02*
X6182Y4008D02*
X6182Y4181D01*
D02*
X6086Y2192D02*
X6081Y2896D01*
D02*
X6081Y2992D02*
X5984Y2993D01*
D02*
X5984Y2993D02*
X5982Y3781D01*
D02*
X6081Y2896D02*
X6081Y2992D01*
D02*
X6359Y2194D02*
X6086Y2192D01*
D02*
X1080Y3395D02*
X3169Y3394D01*
D02*
X1082Y3217D02*
X1080Y3395D01*
D02*
X1796Y3494D02*
X2769Y3494D01*
D02*
X1196Y3494D02*
X1769Y3494D01*
D02*
X2196Y3294D02*
X2569Y3294D01*
D02*
X284Y2094D02*
X205Y2094D01*
D02*
X284Y1493D02*
X284Y2094D01*
D02*
X585Y1493D02*
X284Y1493D01*
D02*
X7882Y1723D02*
X7880Y1793D01*
D02*
X7880Y1793D02*
X6201Y1794D01*
G54D17*
D02*
X10063Y794D02*
X9701Y794D01*
D02*
X10082Y813D02*
X10082Y964D01*
D02*
X363Y5794D02*
X212Y5794D01*
D02*
X382Y5513D02*
X380Y5591D01*
D02*
X380Y5591D02*
X212Y5594D01*
D02*
X380Y5391D02*
X212Y5394D01*
D02*
X382Y5213D02*
X380Y5391D01*
D02*
X283Y5197D02*
X212Y5195D01*
D02*
X283Y5094D02*
X283Y5197D01*
D02*
X380Y5094D02*
X283Y5094D01*
D02*
X382Y4813D02*
X380Y5094D01*
D02*
X363Y4395D02*
X180Y4396D01*
D02*
X180Y4396D02*
X182Y4964D01*
G04 End of Copper1*
M02*