; NON-PLATED HOLES START AT T1
; THROUGH (PLATED) HOLES START AT T100
M48
INCH
T100C0.038000
T101C0.015748
T102C0.035000
%
T100
X001822Y053943
X112823Y055943
X033822Y009943
X055822Y070943
X001822Y051943
X045822Y070943
X112823Y027943
X042822Y009943
X068822Y070943
X001822Y009943
X088822Y070943
X110823Y068943
X111823Y036943
X081822Y010943
X112823Y061943
X112823Y058943
X021822Y071943
X018822Y010943
X003822Y010943
X055822Y071943
X064822Y071943
X112823Y033943
X036822Y009943
X045822Y010943
X033822Y071943
X096822Y010943
X088822Y071943
X041822Y071943
X051822Y071943
X006822Y010943
X081822Y009943
X111823Y033943
X009822Y009943
X111823Y024943
X088822Y010943
X021822Y010943
X042822Y010943
X077822Y070943
X027822Y010943
X111823Y045943
X033822Y010943
X015822Y010943
X036822Y010943
X111823Y058943
X077822Y009943
X077822Y071943
X037822Y071943
X025822Y071943
X041822Y070943
X100823Y009943
X008822Y067943
X111823Y039943
X045822Y071943
X033822Y070943
X111823Y052943
X111823Y064943
X059822Y071943
X072822Y071943
X111823Y061943
X096822Y009943
X009822Y010943
X068822Y071943
X111823Y027943
X021822Y070943
X111823Y030943
X045822Y009943
X084822Y010943
X064822Y070943
X015822Y009943
X112823Y030943
X088822Y009943
X049822Y070943
X077822Y010943
X082822Y070943
X092822Y009943
X001822Y055943
X030822Y009943
X001822Y049943
X100823Y010943
X039822Y009943
X104823Y010943
X029822Y071943
X112823Y042943
X092822Y010943
X003822Y009943
X029822Y070943
X111823Y068943
X012822Y009943
X112823Y024943
X049822Y071943
X072822Y070943
X104823Y009943
X030822Y010943
X018822Y009943
X024822Y009943
X084822Y009943
X051822Y070943
X025822Y070943
X059822Y070943
X037822Y070943
X112823Y039943
X012822Y010943
X111823Y042943
X112823Y045943
X001822Y010943
X110823Y064943
X001822Y057943
X111823Y055943
X112823Y036943
X112823Y052943
X006822Y009943
X112823Y049943
X027822Y009943
X039822Y010943
X024822Y010943
X021822Y009943
X008822Y066943
X082822Y071943
X111823Y049943
T101
X035822Y014943
X032822Y014943
X025822Y045944
X104823Y007943
X012822Y007943
X029822Y014943
X059822Y074943
X060822Y032944
X054822Y052944
X036822Y013943
X029822Y035944
X056822Y040944
X031822Y033944
X053823Y028943
X030822Y007943
X077823Y007943
X027822Y007943
X026822Y052944
X096823Y007943
X116823Y027943
X079823Y014943
X116823Y045944
X011822Y034944
X068822Y074943
X009822Y013943
X003822Y054944
X116823Y039944
X056822Y030943
X109823Y063944
X034813Y026934
X054827Y023942
X030822Y047944
X064822Y074943
X026823Y032943
X054822Y042944
X006822Y013943
X090822Y014943
X032822Y047944
X023822Y051944
X051822Y052944
X003822Y007943
X061822Y041944
X013822Y035944
X109823Y057944
X086822Y072943
X023822Y014943
X025822Y043944
X039822Y013943
X060822Y047944
X019822Y057944
X027822Y034944
X088823Y007943
X081822Y013943
X092823Y007943
X053822Y038944
X109823Y060944
X049822Y074943
X012800Y042952
X050825Y045958
X116823Y058944
X082822Y074943
X028822Y050944
X109823Y038944
X009822Y007943
X084823Y007943
X045822Y013943
X116823Y052944
X012822Y013943
X026822Y038944
X116823Y049944
X100823Y013943
X057822Y035944
X015822Y013943
X026822Y014943
X033822Y074943
X003822Y051944
X051822Y074943
X016822Y046944
X041822Y048944
X116823Y030943
X054822Y044944
X030822Y013943
X089822Y003943
X026822Y042944
X028822Y044944
X023822Y048944
X042822Y007943
X088926Y074015
X026822Y046944
X021822Y007943
X092822Y037944
X077823Y013943
X057822Y051944
X028822Y040944
X055822Y074943
X045822Y074943
X028822Y035944
X018822Y007943
X021822Y032944
X021822Y013943
X024825Y050934
X047822Y014943
X025822Y032944
X041822Y057944
X094822Y014943
X116823Y064944
X055822Y048944
X003822Y047944
X031822Y048944
X014822Y014943
X104823Y040944
X056835Y051962
X053822Y048944
X116823Y033944
X056810Y025962
X014822Y036944
X008822Y014943
X030812Y050934
X061822Y039944
X116823Y024943
X026822Y050944
X033822Y007943
X006822Y007943
X088822Y013943
X109823Y044944
X011822Y014943
X104823Y013943
X098822Y014943
X012822Y035944
X017822Y034944
X044822Y014943
X036822Y007943
X116823Y036944
X061822Y017943
X088822Y074943
X054822Y034944
X049818Y053944
X025822Y074943
X106823Y014943
X055822Y052944
X051822Y050944
X017822Y014943
X109823Y032944
X109823Y035944
X066822Y028943
X027822Y013943
X024822Y047944
X003822Y043944
X054822Y047944
X061822Y020943
X024822Y036944
X109823Y070943
X024822Y007943
X056822Y046944
X057822Y045944
X054822Y036944
X025822Y050944
X116823Y055944
X053822Y052944
X056822Y036944
X092822Y013943
X072822Y074943
X116823Y042944
X109823Y029943
X015822Y007943
X109823Y051944
X021822Y074943
X055822Y038944
X109823Y026943
X109823Y054944
X012822Y040944
X096822Y013943
X018822Y013943
X109823Y072943
X057820Y024952
X041822Y014943
X019822Y072943
X053822Y049944
X011822Y057944
X042822Y013943
X041822Y074943
X037822Y074943
X109823Y066944
X052822Y042944
X077822Y074943
X083822Y014943
X039822Y007943
X109823Y014943
X055822Y043944
X029822Y074943
X102823Y014943
X033822Y013943
X061822Y050944
X059822Y037944
X025822Y052944
X003806Y013939
X003822Y057944
X081823Y007943
X116823Y061944
X052822Y046944
X038822Y014943
X059822Y048944
X056810Y019939
X109823Y041944
X024822Y013943
X045822Y007943
X084822Y013943
X030822Y036944
X029822Y038944
X021822Y031943
X116823Y068943
X053817Y022932
X109823Y047944
X020822Y014943
X033822Y034944
X016822Y038944
X100823Y007943
X053822Y033944
X014822Y057944
T102
X042822Y017943
X098822Y017943
X068822Y065943
X021822Y017943
X022822Y065943
X048822Y065943
X042822Y065943
X097822Y060943
X007822Y017943
X104823Y017943
X024822Y028943
X063822Y026943
X037822Y065943
X097822Y035943
X097822Y045943
X019822Y017943
X097822Y068943
X097822Y054943
X015822Y031943
X056822Y057943
X082822Y017943
X027822Y065943
X038822Y065943
X063822Y031943
X027822Y054943
X066822Y047943
X097822Y044943
X035822Y017943
X017822Y017943
X063822Y025943
X092822Y017943
X008822Y031943
X064822Y065943
X058822Y054943
X025822Y065943
X097822Y037943
X053822Y057943
X055822Y065943
X013822Y028943
X063822Y045943
X097822Y066943
X013822Y031943
X066822Y043943
X030822Y028943
X034822Y065943
X066822Y032943
X025822Y017943
X106823Y017943
X055822Y057943
X088782Y065833
X001822Y020943
X022822Y017943
X084822Y065943
X078822Y016943
X066822Y044943
X039822Y017943
X094822Y017943
X066822Y033943
X033822Y017943
X026822Y028943
X052822Y065943
X029822Y031943
X082822Y065943
X023822Y057943
X050822Y065943
X045822Y065943
X031822Y031943
X097822Y031943
X063822Y040943
X063822Y046943
X030822Y057943
X023822Y054943
X009822Y028943
X063822Y024943
X057822Y057943
X028822Y017943
X088822Y017943
X072822Y065943
X063822Y022943
X012822Y028943
X074822Y065943
X086782Y065833
X049822Y065943
X066822Y030943
X097822Y026943
X047822Y065943
X032822Y017943
X069822Y065943
X097822Y055943
X097822Y064943
X031822Y065943
X010822Y017943
X029822Y017943
X097822Y047943
X027822Y057943
X085822Y017943
X102823Y017943
X097822Y024943
X066822Y023943
X097822Y065943
X028822Y031943
X028822Y028943
X097822Y036943
X097822Y028943
X020822Y017943
X078822Y065943
X025822Y031943
X097822Y017943
X060822Y065943
X025822Y028943
X077822Y016943
X008822Y028943
X097822Y029943
X077822Y065943
X063822Y047943
X063822Y044943
X101823Y017943
X057822Y054943
X063822Y037943
X063822Y035943
X065822Y065943
X097822Y043943
X063822Y036943
X026822Y017943
X024822Y057943
X027822Y031943
X063822Y034943
X014822Y031943
X066822Y045943
X058822Y057943
X026822Y065943
X026822Y031943
X079822Y016943
X031822Y017943
X046822Y017943
X013822Y017943
X066822Y034943
X045822Y017943
X011822Y031943
X087782Y065833
X051822Y054943
X014822Y028943
X097822Y033943
X063822Y042943
X001822Y019943
X035822Y065943
X097822Y069943
X030822Y054943
X009822Y031943
X027822Y028943
X066822Y022943
X097822Y034943
X040822Y017943
X031822Y028943
X097822Y041943
X063822Y023943
X028822Y054943
X097822Y030943
X047822Y017943
X054822Y054943
X037822Y017943
X041822Y065943
X027822Y017943
X004822Y017943
X024822Y054943
X028822Y057943
X043822Y017943
X097822Y042943
X097822Y050943
X066822Y036943
X063822Y021943
X011822Y028943
X079822Y065943
X097822Y038943
X097822Y040943
X052822Y057943
X030822Y031943
X024822Y031943
X026822Y054943
X097822Y025943
X066822Y037943
X006822Y017943
X097822Y058943
X063822Y033943
X053822Y054943
X090822Y017943
X033822Y065943
X025822Y054943
X084822Y017943
X066822Y021943
X093822Y017943
X025822Y057943
X030822Y017943
X056822Y054943
X010822Y028943
X066822Y031943
X001822Y018943
X097822Y039943
X008822Y017943
X034822Y017943
X066822Y046943
X038822Y017943
X063822Y032943
X066822Y040943
X066822Y042943
X051822Y057943
X039822Y065943
X043822Y065943
X023822Y065943
X046822Y065943
X063822Y019943
X083822Y017943
X097822Y063943
X024822Y017943
X097822Y046943
X066822Y035943
X100823Y017943
X026822Y057943
X059822Y065943
X086822Y017943
X061822Y065943
X070822Y065943
X057822Y065943
X097822Y051943
X023822Y017943
X097822Y027943
X029822Y054943
X029822Y065943
X053822Y065943
X011822Y017943
X029822Y028943
X097822Y067943
X097822Y032943
X056822Y065943
X097822Y056943
X089822Y017943
X012822Y017943
X015822Y028943
X105823Y017943
X097822Y061943
X051822Y065943
X081822Y017943
X066822Y020943
X021822Y065943
X097822Y053943
X097822Y052943
X063822Y020943
X066822Y025943
X066822Y024943
X029822Y057943
X009822Y017943
X012822Y031943
X041822Y017943
X063822Y030943
X005822Y017943
X036822Y017943
X052822Y054943
X044822Y017943
X018822Y017943
X063822Y043943
X096822Y017943
X010822Y031943
X030822Y065943
X016822Y017943
X097822Y059943
X003822Y017943
X063822Y041943
X066822Y019943
X066822Y041943
X055822Y054943
X083822Y065943
X066822Y065943
X054822Y057943
X015822Y017943
X014822Y017943
X073822Y065943
X097822Y049943
X097822Y057943
X097822Y062943
X066822Y026943
T00
M30
