G04 MADE WITH FRITZING*
G04 WWW.FRITZING.ORG*
G04 DOUBLE SIDED*
G04 HOLES PLATED*
G04 CONTOUR ON CENTER OF CONTOUR VECTOR*
%ASAXBY*%
%FSLAX23Y23*%
%MOIN*%
%OFA0B0*%
%SFA1.0B1.0*%
%ADD10C,0.049370*%
%ADD11C,0.085000*%
%ADD12C,0.081889*%
%ADD13C,0.081917*%
%ADD14C,0.088000*%
%ADD15R,0.085000X0.085000*%
%ADD16R,0.088000X0.088000*%
%LNMASK0*%
G90*
G70*
G54D10*
X4844Y9248D03*
X4744Y8948D03*
X4544Y8948D03*
X2844Y9048D03*
X2844Y8748D03*
X4644Y9448D03*
X4644Y9248D03*
X4644Y8848D03*
X4644Y8448D03*
X4544Y9448D03*
X4544Y9248D03*
X4544Y8748D03*
X4544Y8548D03*
X4444Y9048D03*
X4944Y9048D03*
X5944Y9448D03*
X5944Y9048D03*
X6544Y9448D03*
X6544Y9048D03*
X6944Y9048D03*
X7644Y8548D03*
X7044Y8548D03*
X6944Y7648D03*
X7644Y7648D03*
X6944Y7048D03*
X7644Y7048D03*
X6944Y5248D03*
X6444Y6048D03*
X5144Y6048D03*
X6744Y6748D03*
X6744Y6448D03*
X6144Y6448D03*
X4844Y6448D03*
X4244Y6448D03*
X3444Y6448D03*
X4844Y8648D03*
X6444Y9448D03*
X6444Y8448D03*
X6444Y8948D03*
X6444Y8648D03*
X6844Y8648D03*
X6844Y7148D03*
X4644Y6148D03*
X3244Y6148D03*
X6344Y9448D03*
X6344Y8948D03*
X3344Y7548D03*
X3344Y6648D03*
X3344Y6148D03*
X4744Y6648D03*
X4544Y6648D03*
X6644Y7048D03*
X6444Y6648D03*
X6544Y6148D03*
X6644Y6148D03*
X6844Y8748D03*
X6644Y7248D03*
X6844Y7248D03*
X6144Y9448D03*
X6144Y9248D03*
X7442Y9249D03*
X7544Y9048D03*
X7344Y9048D03*
X7544Y8348D03*
X7544Y8048D03*
X6944Y6048D03*
X4544Y6048D03*
X4744Y6148D03*
X4444Y5848D03*
X3144Y6048D03*
X4344Y5848D03*
X4044Y5848D03*
X4044Y5248D03*
X6244Y5948D03*
X5944Y5948D03*
X5944Y5548D03*
G54D11*
X4244Y5248D03*
X4244Y5548D03*
X4344Y5248D03*
X4344Y5548D03*
X4444Y5248D03*
X4444Y5548D03*
X4544Y5248D03*
X4544Y5548D03*
X4644Y5248D03*
X4644Y5548D03*
X4744Y5248D03*
X4744Y5548D03*
X4844Y5248D03*
X4844Y5548D03*
X4944Y5248D03*
X4944Y5548D03*
X6144Y5248D03*
X6144Y5548D03*
X6244Y5248D03*
X6244Y5548D03*
X6344Y5248D03*
X6344Y5548D03*
X6444Y5248D03*
X6444Y5548D03*
X6544Y5248D03*
X6544Y5548D03*
X6644Y5248D03*
X6644Y5548D03*
X6744Y5248D03*
X6744Y5548D03*
X6844Y5248D03*
X6844Y5548D03*
X8044Y6748D03*
X7744Y6748D03*
X8044Y6848D03*
X7744Y6848D03*
X8044Y6948D03*
X7744Y6948D03*
X8044Y7048D03*
X7744Y7048D03*
X8044Y7148D03*
X7744Y7148D03*
X8044Y7248D03*
X7744Y7248D03*
X8044Y7348D03*
X7744Y7348D03*
X8044Y7448D03*
X7744Y7448D03*
X8044Y8248D03*
X7744Y8248D03*
X8044Y8348D03*
X7744Y8348D03*
X8044Y8448D03*
X7744Y8448D03*
X8044Y8548D03*
X7744Y8548D03*
X8044Y8648D03*
X7744Y8648D03*
X8044Y8748D03*
X7744Y8748D03*
X8044Y8848D03*
X7744Y8848D03*
X8044Y8948D03*
X7744Y8948D03*
X6844Y9948D03*
X6844Y9648D03*
X6744Y9948D03*
X6744Y9648D03*
X6644Y9948D03*
X6644Y9648D03*
X6544Y9948D03*
X6544Y9648D03*
X6444Y9948D03*
X6444Y9648D03*
X6344Y9948D03*
X6344Y9648D03*
X6244Y9948D03*
X6244Y9648D03*
X6144Y9948D03*
X6144Y9648D03*
X5044Y9948D03*
X5044Y9648D03*
X4944Y9948D03*
X4944Y9648D03*
X4844Y9948D03*
X4844Y9648D03*
X4744Y9948D03*
X4744Y9648D03*
X4644Y9948D03*
X4644Y9648D03*
X4544Y9948D03*
X4544Y9648D03*
X4444Y9948D03*
X4444Y9648D03*
X4344Y9948D03*
X4344Y9648D03*
G54D10*
X4244Y11648D03*
X8944Y4548D03*
X4344Y9348D03*
X6744Y8848D03*
X7344Y8948D03*
X3244Y6848D03*
X7144Y7448D03*
X6844Y5848D03*
G54D11*
X2844Y5248D03*
X2844Y5548D03*
X2944Y5248D03*
X2944Y5548D03*
X3044Y5248D03*
X3044Y5548D03*
X3144Y5248D03*
X3144Y5548D03*
X3244Y5248D03*
X3244Y5548D03*
X3344Y5248D03*
X3344Y5548D03*
X3444Y5248D03*
X3444Y5548D03*
X3544Y5248D03*
X3544Y5548D03*
G54D10*
X3844Y6048D03*
X4944Y5748D03*
G54D11*
X3244Y3548D03*
X3344Y3548D03*
X3444Y3548D03*
X2444Y3548D03*
X2544Y3548D03*
X2644Y3548D03*
X2044Y3548D03*
X2144Y3548D03*
X2244Y3548D03*
X1644Y3548D03*
X1744Y3548D03*
X1844Y3548D03*
X344Y2948D03*
X344Y3048D03*
X344Y3148D03*
X2844Y3548D03*
X2944Y3548D03*
X3044Y3548D03*
X5244Y3548D03*
X5344Y3548D03*
X5444Y3548D03*
X3644Y3548D03*
X3744Y3548D03*
X3844Y3548D03*
X4044Y3548D03*
X4144Y3548D03*
X4244Y3548D03*
X4844Y3548D03*
X4944Y3548D03*
X5044Y3548D03*
X4444Y3548D03*
X4544Y3548D03*
X4644Y3548D03*
X10733Y9652D03*
X10733Y9752D03*
X10733Y9852D03*
X10733Y9252D03*
X10733Y9352D03*
X10733Y9452D03*
X10733Y8852D03*
X10733Y8952D03*
X10733Y9052D03*
X10733Y8452D03*
X10733Y8552D03*
X10733Y8652D03*
X10733Y8052D03*
X10733Y8152D03*
X10733Y8252D03*
X10733Y7652D03*
X10733Y7752D03*
X10733Y7852D03*
X10733Y7252D03*
X10733Y7352D03*
X10733Y7452D03*
X10733Y6852D03*
X10733Y6952D03*
X10733Y7052D03*
X10733Y10152D03*
X10733Y10252D03*
X10733Y10352D03*
X10733Y10652D03*
X10733Y10752D03*
X10733Y10852D03*
X10733Y6452D03*
X10733Y6552D03*
X10733Y6652D03*
X10733Y6052D03*
X10733Y6152D03*
X10733Y6252D03*
X10733Y5652D03*
X10733Y5752D03*
X10733Y5852D03*
X10733Y5152D03*
X10733Y5252D03*
X10733Y5352D03*
X10733Y4752D03*
X10733Y4852D03*
X10733Y4952D03*
X10733Y4352D03*
X10733Y4452D03*
X10733Y4552D03*
X3044Y10648D03*
X3144Y10648D03*
X3244Y10648D03*
X3644Y10648D03*
X3744Y10648D03*
X3844Y10648D03*
X4744Y10648D03*
X4844Y10648D03*
X4944Y10648D03*
X5244Y10648D03*
X5344Y10648D03*
X5444Y10648D03*
X5744Y10648D03*
X5844Y10648D03*
X5944Y10648D03*
X6244Y10748D03*
X6344Y10748D03*
X6444Y10748D03*
X6744Y10748D03*
X6844Y10748D03*
X6944Y10748D03*
X7244Y10748D03*
X7344Y10748D03*
X7444Y10748D03*
X7744Y10748D03*
X7844Y10748D03*
X7944Y10748D03*
X8244Y10748D03*
X8344Y10748D03*
X8444Y10748D03*
X8744Y10748D03*
X8844Y10748D03*
X8944Y10748D03*
X9144Y10748D03*
X9244Y10748D03*
X9344Y10748D03*
X9544Y10748D03*
X9644Y10748D03*
X9744Y10748D03*
X2644Y10648D03*
X2744Y10648D03*
X2844Y10648D03*
X2144Y10648D03*
X2244Y10648D03*
X2344Y10648D03*
X4244Y10648D03*
X4344Y10648D03*
X4444Y10648D03*
G54D10*
X1944Y9948D03*
X1944Y11448D03*
G54D11*
X5644Y3548D03*
X5744Y3548D03*
X5844Y3548D03*
X1244Y3548D03*
X1344Y3548D03*
X1444Y3548D03*
X9244Y3548D03*
X9344Y3548D03*
X9444Y3548D03*
X8844Y3548D03*
X8944Y3548D03*
X9044Y3548D03*
X6444Y3548D03*
X6544Y3548D03*
X6644Y3548D03*
X6044Y3548D03*
X6144Y3548D03*
X6244Y3548D03*
X7644Y3548D03*
X7744Y3548D03*
X7844Y3548D03*
X6844Y3548D03*
X6944Y3548D03*
X7044Y3548D03*
X7244Y3548D03*
X7344Y3548D03*
X7444Y3548D03*
X8044Y3548D03*
X8144Y3548D03*
X8244Y3548D03*
X8444Y3548D03*
X8544Y3548D03*
X8644Y3548D03*
G54D10*
X10944Y10848D03*
X10944Y10348D03*
X10944Y9848D03*
X10944Y9448D03*
X10944Y9048D03*
X10944Y8648D03*
X10944Y7848D03*
X10944Y8248D03*
X10944Y7448D03*
X10944Y7048D03*
X10944Y6648D03*
X10944Y6248D03*
X10944Y5848D03*
X10944Y11448D03*
X10944Y5348D03*
X10944Y4948D03*
X10944Y4548D03*
X10944Y3348D03*
X9244Y2348D03*
X3244Y3148D03*
X3644Y3148D03*
X4044Y3148D03*
X2844Y3148D03*
X2444Y3148D03*
X1244Y2348D03*
X4444Y3148D03*
X1144Y3148D03*
X2044Y3148D03*
X1644Y3148D03*
X4844Y3148D03*
X7644Y3148D03*
X8044Y3148D03*
X8844Y3148D03*
X8444Y3148D03*
X7244Y3148D03*
X5244Y3148D03*
X6044Y3148D03*
X5644Y3148D03*
X6444Y3148D03*
X6844Y3148D03*
X9444Y3348D03*
X8644Y3348D03*
X8244Y3348D03*
X7244Y3348D03*
X6744Y3348D03*
X5844Y3348D03*
X3444Y3348D03*
X2644Y3348D03*
X2244Y3348D03*
X1844Y3348D03*
X1444Y3348D03*
X4644Y3348D03*
X5044Y3348D03*
X5444Y3348D03*
X6244Y3348D03*
X7844Y3348D03*
X9044Y3348D03*
X6244Y8848D03*
X6744Y7348D03*
X6544Y6848D03*
G54D12*
X2444Y8948D03*
X2444Y8848D03*
X2444Y8748D03*
X2444Y8648D03*
G54D13*
X2444Y8548D03*
G54D12*
X2444Y8448D03*
X2444Y8348D03*
X2444Y8248D03*
X2444Y8148D03*
G54D13*
X2444Y8048D03*
G54D12*
X2444Y7948D03*
G54D13*
X2444Y7848D03*
G54D12*
X2444Y7748D03*
X2444Y7648D03*
X2444Y7548D03*
X2444Y7448D03*
G54D13*
X2444Y7348D03*
G54D12*
X2444Y7248D03*
X2444Y7148D03*
X2444Y7048D03*
X2544Y7048D03*
X2544Y7148D03*
X2544Y7248D03*
G54D13*
X2544Y7348D03*
G54D12*
X2544Y7448D03*
X2544Y7548D03*
X2544Y7648D03*
X2544Y7748D03*
G54D13*
X2544Y7848D03*
G54D12*
X2544Y7948D03*
G54D13*
X2544Y8048D03*
G54D12*
X2544Y8148D03*
X2544Y8248D03*
X2544Y8348D03*
X2544Y8448D03*
G54D13*
X2544Y8548D03*
G54D12*
X2544Y8648D03*
X2544Y8748D03*
X2544Y8848D03*
X2544Y8948D03*
G54D11*
X444Y3548D03*
X544Y3548D03*
X644Y3548D03*
X844Y3548D03*
X944Y3548D03*
X1044Y3548D03*
G54D10*
X1044Y3348D03*
X4244Y3348D03*
X3844Y3348D03*
X3044Y3348D03*
G54D14*
X744Y10748D03*
X644Y10748D03*
G54D10*
X2144Y11648D03*
X9244Y7948D03*
X10444Y8248D03*
X7744Y11648D03*
X8744Y11648D03*
X8244Y11648D03*
X11644Y4348D03*
X7244Y11648D03*
X11644Y10648D03*
X9144Y11648D03*
X2644Y11648D03*
X3044Y11648D03*
X3644Y11648D03*
X6744Y11648D03*
X6244Y11648D03*
X5744Y11648D03*
X4744Y11648D03*
X5244Y11648D03*
G54D14*
X344Y2348D03*
X444Y2348D03*
X9544Y11248D03*
X9544Y11148D03*
X11144Y10648D03*
X11244Y10648D03*
X11144Y10148D03*
X11244Y10148D03*
X11144Y9648D03*
X11244Y9648D03*
X11144Y9248D03*
X11244Y9248D03*
X9144Y11248D03*
X9144Y11148D03*
X8744Y11248D03*
X8744Y11148D03*
X6244Y11248D03*
X6244Y11148D03*
X11144Y8848D03*
X11244Y8848D03*
X6744Y11248D03*
X6744Y11148D03*
X7744Y11248D03*
X7744Y11148D03*
X8244Y11248D03*
X8244Y11148D03*
X7244Y11248D03*
X7244Y11148D03*
X11144Y4748D03*
X11244Y4748D03*
X11144Y5148D03*
X11244Y5148D03*
X11144Y8448D03*
X11244Y8448D03*
X5744Y11248D03*
X5744Y11148D03*
X9244Y2748D03*
X9244Y2648D03*
X944Y2748D03*
X944Y2648D03*
X11144Y4348D03*
X11244Y4348D03*
X11144Y5648D03*
X11244Y5648D03*
X11144Y8048D03*
X11244Y8048D03*
X11144Y6448D03*
X11244Y6448D03*
X11144Y7648D03*
X11244Y7648D03*
X11144Y6848D03*
X11244Y6848D03*
X11144Y6048D03*
X11244Y6048D03*
X11144Y7248D03*
X11244Y7248D03*
X5644Y2748D03*
X5644Y2648D03*
X4844Y2748D03*
X4844Y2648D03*
X6044Y2748D03*
X6044Y2648D03*
X3644Y2748D03*
X3644Y2648D03*
X4444Y2748D03*
X4444Y2648D03*
X5244Y2748D03*
X5244Y2648D03*
X4044Y2748D03*
X4044Y2648D03*
X3244Y2748D03*
X3244Y2648D03*
X644Y2748D03*
X644Y2648D03*
X2844Y2748D03*
X2844Y2648D03*
X1244Y2748D03*
X1244Y2648D03*
X2044Y2748D03*
X2044Y2648D03*
X2444Y2748D03*
X2444Y2648D03*
X1644Y2748D03*
X1644Y2648D03*
X5244Y11248D03*
X5244Y11148D03*
X2144Y11248D03*
X2144Y11148D03*
X4744Y11248D03*
X4744Y11148D03*
X2644Y11248D03*
X2644Y11148D03*
X3644Y11248D03*
X3644Y11148D03*
X4244Y11248D03*
X4244Y11148D03*
X3044Y11248D03*
X3044Y11148D03*
X8844Y2748D03*
X8844Y2648D03*
X6444Y2748D03*
X6444Y2648D03*
X8444Y2748D03*
X8444Y2648D03*
X6844Y2748D03*
X6844Y2648D03*
X7644Y2748D03*
X7644Y2648D03*
X8044Y2748D03*
X8044Y2648D03*
X7244Y2748D03*
X7244Y2648D03*
G54D10*
X9548Y11645D03*
X11644Y10148D03*
X11644Y9648D03*
X11644Y9248D03*
X11644Y8848D03*
X11646Y8443D03*
X11644Y8048D03*
X11651Y7659D03*
X11644Y7248D03*
X11644Y6848D03*
X11644Y6448D03*
X11644Y6048D03*
X11644Y5648D03*
X11644Y4748D03*
X11643Y5151D03*
X8854Y2350D03*
X8444Y2348D03*
X8042Y2346D03*
X644Y2346D03*
X1644Y2348D03*
X2044Y2348D03*
X2444Y2348D03*
X2844Y2348D03*
X3244Y2348D03*
X3644Y2348D03*
X4044Y2348D03*
X4444Y2348D03*
X4844Y2348D03*
X5244Y2348D03*
X5644Y2348D03*
X6044Y2348D03*
X6450Y2346D03*
X6838Y2346D03*
X7234Y2346D03*
X7634Y2350D03*
X944Y2348D03*
X544Y3049D03*
X843Y3250D03*
X1242Y3240D03*
X9248Y3187D03*
G54D15*
X4244Y5248D03*
X6144Y5248D03*
X8044Y6748D03*
X8044Y8248D03*
X6844Y9948D03*
X5044Y9948D03*
X2844Y5248D03*
G54D16*
X744Y10748D03*
G04 End of Mask0*
M02*