G04 MADE WITH FRITZING*
G04 WWW.FRITZING.ORG*
G04 DOUBLE SIDED*
G04 HOLES PLATED*
G04 CONTOUR ON CENTER OF CONTOUR VECTOR*
%ASAXBY*%
%FSLAX23Y23*%
%MOIN*%
%OFA0B0*%
%SFA1.0B1.0*%
%ADD10R,0.035433X0.027559*%
%ADD11R,0.027559X0.035433*%
%LNPASTEMASK1*%
G90*
G70*
G54D10*
X344Y2648D03*
X344Y2699D03*
G54D11*
X11444Y9648D03*
X11495Y9648D03*
X11444Y9248D03*
X11495Y9248D03*
X11444Y10648D03*
X11495Y10648D03*
G54D10*
X2144Y10848D03*
X2144Y10899D03*
X2644Y10848D03*
X2644Y10899D03*
G54D11*
X11444Y10148D03*
X11495Y10148D03*
X11444Y8048D03*
X11495Y8048D03*
X11444Y6848D03*
X11495Y6848D03*
X11444Y8848D03*
X11495Y8848D03*
X11444Y7248D03*
X11495Y7248D03*
G54D10*
X3044Y10848D03*
X3044Y10899D03*
G54D11*
X11444Y8448D03*
X11495Y8448D03*
X11444Y7648D03*
X11495Y7648D03*
G54D10*
X4744Y10848D03*
X4744Y10899D03*
X7744Y10948D03*
X7744Y10999D03*
X3644Y10848D03*
X3644Y10899D03*
X8244Y10948D03*
X8244Y10999D03*
X9144Y10948D03*
X9144Y10999D03*
X944Y2948D03*
X944Y2999D03*
X8744Y10948D03*
X8744Y10999D03*
X7244Y10948D03*
X7244Y10999D03*
X4244Y10848D03*
X4244Y10899D03*
X6244Y10948D03*
X6244Y10999D03*
G54D11*
X11444Y6448D03*
X11495Y6448D03*
G54D10*
X5744Y10848D03*
X5744Y10899D03*
X6744Y10948D03*
X6744Y10999D03*
X5244Y10848D03*
X5244Y10899D03*
X9544Y10948D03*
X9544Y10999D03*
X3644Y2948D03*
X3644Y2999D03*
X5644Y2948D03*
X5644Y2999D03*
X4044Y2948D03*
X4044Y2999D03*
X4844Y2948D03*
X4844Y2999D03*
X5244Y2948D03*
X5244Y2999D03*
X4444Y2948D03*
X4444Y2999D03*
X3244Y2948D03*
X3244Y2999D03*
X644Y2948D03*
X644Y2999D03*
X2844Y2948D03*
X2844Y2999D03*
X1244Y2948D03*
X1244Y2999D03*
X2044Y2948D03*
X2044Y2999D03*
X2444Y2948D03*
X2444Y2999D03*
X1644Y2948D03*
X1644Y2999D03*
G54D11*
X11444Y6048D03*
X11495Y6048D03*
G54D10*
X9244Y2948D03*
X9244Y2999D03*
X8844Y2948D03*
X8844Y2999D03*
G54D11*
X11444Y4348D03*
X11495Y4348D03*
X11444Y5148D03*
X11495Y5148D03*
X11444Y5648D03*
X11495Y5648D03*
X11444Y4748D03*
X11495Y4748D03*
G54D10*
X6044Y2948D03*
X6044Y2999D03*
X6444Y2948D03*
X6444Y2999D03*
X6844Y2948D03*
X6844Y2999D03*
X8444Y2948D03*
X8444Y2999D03*
X8044Y2948D03*
X8044Y2999D03*
X7244Y2948D03*
X7244Y2999D03*
X7644Y2948D03*
X7644Y2999D03*
G04 End of PasteMask1*
M02*