; NON-PLATED HOLES START AT T1
; THROUGH (PLATED) HOLES START AT T100
M48
INCH
T100C0.015748
T101C0.044139
T102C0.035000
T103C0.044111
%
T100
X049440Y090482
X040440Y058482
X115440Y073482
X061440Y064482
X115440Y077482
X065440Y061482
X061440Y092482
X065440Y068482
X076440Y070482
X086440Y027482
X115440Y114482
X067440Y027482
X115440Y048482
X051440Y060482
X045440Y087482
X098440Y027482
X045440Y089482
X115440Y057482
X019440Y114482
X115440Y085482
X033440Y066482
X046440Y061482
X048440Y064482
X059440Y055482
X069440Y052482
X115440Y069482
X066440Y027482
X045440Y094482
X062440Y088482
X047440Y061482
X043440Y093482
X067440Y088482
X046440Y027482
X046440Y084482
X044440Y058482
X047440Y027482
X075440Y081482
X059440Y027482
X042440Y064482
X031440Y060482
X064440Y089482
X115440Y065482
X100440Y027482
X055440Y027482
X040440Y052482
X063440Y027482
X068440Y086482
X045440Y066482
X072440Y027482
X059440Y094482
X073440Y027482
X033440Y075482
X054440Y027482
X010440Y027482
X063440Y089482
X067440Y067482
X076440Y027482
X059440Y059482
X032440Y068482
X069440Y060482
X045440Y085482
X068440Y087482
X115440Y089482
X068440Y058482
X046440Y088482
X045440Y092482
X115440Y097482
X090440Y027482
X069440Y090482
X048440Y092482
X066440Y072482
X076440Y085482
X115440Y061482
X034440Y027482
X069440Y027482
X028440Y087482
X115440Y027482
X075440Y090482
X064440Y066482
X062440Y059482
X070440Y085482
X026440Y027482
X068440Y071482
X051440Y027482
X063440Y094482
X018440Y027482
X064440Y060482
X046440Y094482
X105440Y027482
X064440Y094482
X082440Y027482
X038440Y060482
X071440Y074482
X042440Y027482
X102440Y027482
X043440Y058482
X048440Y086482
X115440Y081482
X064440Y084482
X059440Y090482
X049440Y057482
X047440Y089482
X094440Y027482
X047440Y066482
X033440Y061482
X115440Y093482
X069440Y070482
X065440Y090482
X115440Y102482
X045440Y060482
X065440Y094482
X115440Y052482
X034440Y064482
X067440Y073482
X022440Y027482
X076440Y076482
X069440Y076482
X028440Y090482
X115440Y107482
X066440Y070482
X061440Y094482
X032440Y061482
X020440Y099482
X046440Y092482
X044440Y090482
X115440Y044482
X074420Y092492
X068440Y072482
X066440Y061482
X043440Y104482
X075440Y083482
X067440Y064482
X091440Y027482
X064440Y086482
X078440Y027482
X073440Y089482
X014440Y027482
X089440Y045482
X073440Y090482
T101
X001440Y073482
X001440Y078482
X002440Y073482
X001440Y080482
X002440Y085482
X002440Y080482
X002440Y078482
X001440Y085482
T102
X065440Y052482
X064440Y052482
X106440Y102482
X072440Y110482
X108440Y065482
X031440Y055482
X009440Y035482
X063440Y096482
X029440Y055482
X080440Y074482
X082440Y035482
X081440Y035482
X078440Y110482
X032440Y110482
X106440Y093482
X108440Y077482
X089440Y035482
X065440Y099482
X077440Y110482
X002440Y031482
X107440Y061482
X049440Y055482
X090440Y035482
X061440Y096482
X048440Y035482
X106440Y089482
X029440Y052482
X106440Y081482
X053440Y035482
X046440Y055482
X080440Y086482
X080440Y069482
X107440Y073482
X049440Y035482
X031440Y052482
X032440Y055482
X108440Y089482
X077440Y072482
X003440Y031482
X049440Y110482
X072440Y035482
X006440Y035482
X107440Y052482
X074440Y035482
X067440Y096482
X077440Y083482
X080440Y068482
X086440Y035482
X074440Y110482
X048440Y055482
X032440Y035482
X077440Y082482
X037440Y035482
X106440Y085482
X108440Y069482
X077440Y084482
X047440Y096482
X067440Y055482
X059440Y110482
X048440Y052482
X077440Y087482
X106440Y052482
X068440Y110482
X077440Y070482
X047440Y055482
X047440Y110482
X067440Y052482
X064440Y110482
X061440Y052482
X062440Y099482
X092440Y035482
X077440Y068482
X097440Y110482
X028440Y055482
X108440Y048482
X077440Y089482
X048440Y096482
X077440Y067482
X096440Y110482
X046440Y096482
X095440Y110482
X106440Y107482
X077440Y086482
X093440Y110482
X045440Y099482
X077440Y069482
X049440Y096482
X063440Y055482
X107440Y069482
X061440Y099482
X077440Y085482
X042440Y110482
X034440Y035482
X065440Y096482
X023440Y110482
X070440Y035482
X080440Y087482
X094440Y035482
X085440Y035482
X077440Y035482
X087440Y110482
X058440Y110482
X050440Y099482
X042440Y035482
X064440Y099482
X089440Y110482
X068440Y052482
X056440Y035482
X106440Y077482
X077440Y071482
X108440Y093482
X107440Y102482
X107440Y097482
X030440Y035482
X028440Y052482
X024440Y035482
X047440Y052482
X061440Y055482
X068440Y096482
X108440Y085482
X062440Y052482
X080440Y067482
X080440Y072482
X030440Y110482
X080440Y088482
X091440Y110482
X069440Y035482
X033440Y055482
X026440Y035482
X107440Y057482
X035440Y052482
X066440Y052482
X021440Y110482
X045440Y052482
X080440Y035482
X084440Y110482
X077440Y074482
X058440Y035482
X044440Y035482
X108440Y097482
X077440Y073482
X028440Y110482
X013440Y035482
X044440Y055482
X027440Y110482
X073440Y110482
X068440Y099482
X034440Y052482
X108440Y052482
X076440Y035482
X107440Y077482
X038440Y035482
X034440Y055482
X028440Y035482
X048440Y110482
X088440Y035482
X060440Y035482
X033440Y035482
X106440Y097482
X063440Y110482
X037440Y110482
X050440Y035482
X004440Y035482
X046440Y099482
X047440Y099482
X043440Y099482
X093440Y035482
X067440Y099482
X041440Y110482
X080440Y085482
X063440Y052482
X062440Y055482
X036440Y035482
X043440Y096482
X066440Y055482
X042440Y052482
X108440Y061482
X012440Y035482
X048440Y099482
X052440Y035482
X046440Y035482
X014440Y035482
X106440Y048482
X108440Y102482
X025440Y035482
X082440Y110482
X106440Y069482
X040440Y035482
X080440Y082482
X067440Y110482
X078440Y035482
X017440Y035482
X107440Y093482
X077440Y088482
X108440Y057482
X043440Y052482
X080440Y089482
X106440Y057482
X108440Y107482
X107440Y089482
X020440Y035482
X044440Y096482
X005440Y035482
X107440Y048482
X031440Y110482
X061440Y035482
X057440Y110482
X107440Y044482
X044440Y052482
X064440Y055482
X054440Y110482
X008440Y035482
X080440Y083482
X041440Y035482
X022440Y035482
X044440Y099482
X108440Y044482
X083440Y110482
X107440Y085482
X092440Y110482
X026440Y110482
X033440Y052482
X018440Y035482
X065440Y055482
X107440Y081482
X066440Y096482
X049440Y099482
X036440Y110482
X079440Y110482
X080440Y071482
X049440Y052482
X088440Y110482
X004440Y031482
X064440Y035482
X045440Y096482
X043440Y055482
X016440Y035482
X107440Y107482
X030440Y055482
X045440Y055482
X106440Y065482
X046440Y052482
X030440Y052482
X069440Y110482
X080440Y084482
X010440Y035482
X068440Y035482
X062440Y110482
X065440Y035482
X035440Y055482
X068440Y055482
X066440Y035482
X106440Y073482
X080440Y073482
X029440Y035482
X021440Y035482
X052440Y110482
X063440Y099482
X022440Y110482
X045440Y035482
X107440Y065482
X043440Y110482
X057440Y035482
X062440Y096482
X064440Y096482
X062440Y035482
X054440Y035482
X066440Y099482
X106440Y061482
X106440Y044482
X108440Y073482
X108440Y081482
X042440Y055482
X053440Y110482
X084440Y035482
X073440Y035482
X035440Y110482
X032440Y052482
X050440Y096482
X080440Y070482
T103
X002440Y079482
X002440Y086482
X002440Y076482
X002440Y074482
X002440Y071482
X001440Y074482
X002440Y084482
X002440Y089482
X002440Y081482
X001440Y086482
X002440Y082482
X002440Y070482
X001440Y082482
X001440Y083482
X002440Y083482
X002440Y075482
X001440Y070482
X001440Y076482
X001440Y084482
X002440Y077482
X001440Y089482
X001440Y077482
X002440Y072482
X001440Y075482
X002440Y088482
X001440Y071482
X002440Y087482
X001440Y079482
X001440Y072482
X001440Y088482
X001440Y087482
X001440Y081482
T00
M30
