G04 MADE WITH FRITZING*
G04 WWW.FRITZING.ORG*
G04 DOUBLE SIDED*
G04 HOLES PLATED*
G04 CONTOUR ON CENTER OF CONTOUR VECTOR*
%ASAXBY*%
%FSLAX23Y23*%
%MOIN*%
%OFA0B0*%
%SFA1.0B1.0*%
%ADD10C,0.039370*%
%ADD11C,0.075000*%
%ADD12C,0.071889*%
%ADD13C,0.071917*%
%ADD14R,0.075000X0.075000*%
%ADD15C,0.024000*%
%LNCOPPER0*%
G90*
G70*
G54D10*
X4844Y9248D03*
X4744Y8948D03*
X4544Y8948D03*
X2844Y9048D03*
X2844Y8748D03*
X4644Y9448D03*
X4644Y9248D03*
X4644Y8848D03*
X4644Y8448D03*
X4544Y9448D03*
X4544Y9248D03*
X4544Y8748D03*
X4544Y8548D03*
X4444Y9048D03*
X4944Y9048D03*
X5944Y9448D03*
X5944Y9048D03*
X6544Y9448D03*
X6544Y9048D03*
X6944Y9048D03*
X7644Y8548D03*
X7044Y8548D03*
X6944Y7648D03*
X7644Y7648D03*
X6944Y7048D03*
X7644Y7048D03*
X6944Y5248D03*
X6444Y6048D03*
X5144Y6048D03*
X6744Y6748D03*
X6744Y6448D03*
X6144Y6448D03*
X4844Y6448D03*
X4244Y6448D03*
X3444Y6448D03*
X4844Y8648D03*
X6444Y9448D03*
X6444Y8448D03*
X6444Y8948D03*
X6444Y8648D03*
X6844Y8648D03*
X6844Y7148D03*
X4644Y6148D03*
X3244Y6148D03*
X6344Y9448D03*
X6344Y8948D03*
X3344Y7548D03*
X3344Y6648D03*
X3344Y6148D03*
X4744Y6648D03*
X4544Y6648D03*
X6644Y7048D03*
X6444Y6648D03*
X6544Y6148D03*
X6644Y6148D03*
X6844Y8748D03*
X6644Y7248D03*
X6844Y7248D03*
X6144Y9448D03*
X6144Y9248D03*
X7442Y9249D03*
X7544Y9048D03*
X7344Y9048D03*
X7544Y8348D03*
X7544Y8148D03*
X6944Y6048D03*
X4544Y6048D03*
X4744Y6148D03*
X4444Y5848D03*
X3144Y6048D03*
X4344Y5848D03*
X4044Y5848D03*
X4044Y5248D03*
X6244Y5948D03*
X5944Y5948D03*
X5944Y5548D03*
G54D11*
X4244Y5248D03*
X4244Y5548D03*
X4344Y5248D03*
X4344Y5548D03*
X4444Y5248D03*
X4444Y5548D03*
X4544Y5248D03*
X4544Y5548D03*
X4644Y5248D03*
X4644Y5548D03*
X4744Y5248D03*
X4744Y5548D03*
X4844Y5248D03*
X4844Y5548D03*
X4944Y5248D03*
X4944Y5548D03*
X6144Y5248D03*
X6144Y5548D03*
X6244Y5248D03*
X6244Y5548D03*
X6344Y5248D03*
X6344Y5548D03*
X6444Y5248D03*
X6444Y5548D03*
X6544Y5248D03*
X6544Y5548D03*
X6644Y5248D03*
X6644Y5548D03*
X6744Y5248D03*
X6744Y5548D03*
X6844Y5248D03*
X6844Y5548D03*
X8044Y6748D03*
X7744Y6748D03*
X8044Y6848D03*
X7744Y6848D03*
X8044Y6948D03*
X7744Y6948D03*
X8044Y7048D03*
X7744Y7048D03*
X8044Y7148D03*
X7744Y7148D03*
X8044Y7248D03*
X7744Y7248D03*
X8044Y7348D03*
X7744Y7348D03*
X8044Y7448D03*
X7744Y7448D03*
X8044Y8248D03*
X7744Y8248D03*
X8044Y8348D03*
X7744Y8348D03*
X8044Y8448D03*
X7744Y8448D03*
X8044Y8548D03*
X7744Y8548D03*
X8044Y8648D03*
X7744Y8648D03*
X8044Y8748D03*
X7744Y8748D03*
X8044Y8848D03*
X7744Y8848D03*
X8044Y8948D03*
X7744Y8948D03*
X6844Y9948D03*
X6844Y9648D03*
X6744Y9948D03*
X6744Y9648D03*
X6644Y9948D03*
X6644Y9648D03*
X6544Y9948D03*
X6544Y9648D03*
X6444Y9948D03*
X6444Y9648D03*
X6344Y9948D03*
X6344Y9648D03*
X6244Y9948D03*
X6244Y9648D03*
X6144Y9948D03*
X6144Y9648D03*
X5044Y9948D03*
X5044Y9648D03*
X4944Y9948D03*
X4944Y9648D03*
X4844Y9948D03*
X4844Y9648D03*
X4744Y9948D03*
X4744Y9648D03*
X4644Y9948D03*
X4644Y9648D03*
X4544Y9948D03*
X4544Y9648D03*
X4444Y9948D03*
X4444Y9648D03*
X4344Y9948D03*
X4344Y9648D03*
G54D10*
X4344Y10448D03*
X8944Y4548D03*
X4344Y9348D03*
X6744Y8848D03*
X7344Y8948D03*
X3244Y6848D03*
X7144Y7448D03*
X6844Y5848D03*
G54D11*
X2844Y5248D03*
X2844Y5548D03*
X2944Y5248D03*
X2944Y5548D03*
X3044Y5248D03*
X3044Y5548D03*
X3144Y5248D03*
X3144Y5548D03*
X3244Y5248D03*
X3244Y5548D03*
X3344Y5248D03*
X3344Y5548D03*
X3444Y5248D03*
X3444Y5548D03*
X3544Y5248D03*
X3544Y5548D03*
G54D10*
X3844Y6048D03*
X4944Y5748D03*
G54D11*
X3244Y3548D03*
X3344Y3548D03*
X3444Y3548D03*
X2444Y3548D03*
X2544Y3548D03*
X2644Y3548D03*
X2044Y3548D03*
X2144Y3548D03*
X2244Y3548D03*
X1644Y3548D03*
X1744Y3548D03*
X1844Y3548D03*
X244Y3148D03*
X344Y3148D03*
X444Y3148D03*
X2844Y3548D03*
X2944Y3548D03*
X3044Y3548D03*
X5244Y3548D03*
X5344Y3548D03*
X5444Y3548D03*
X3644Y3548D03*
X3744Y3548D03*
X3844Y3548D03*
X4044Y3548D03*
X4144Y3548D03*
X4244Y3548D03*
X4844Y3548D03*
X4944Y3548D03*
X5044Y3548D03*
X4444Y3548D03*
X4544Y3548D03*
X4644Y3548D03*
X10644Y9748D03*
X10744Y9748D03*
X10844Y9748D03*
X10644Y9348D03*
X10744Y9348D03*
X10844Y9348D03*
X10644Y8948D03*
X10744Y8948D03*
X10844Y8948D03*
X10644Y8548D03*
X10744Y8548D03*
X10844Y8548D03*
X10644Y8148D03*
X10744Y8148D03*
X10844Y8148D03*
X10644Y7748D03*
X10744Y7748D03*
X10844Y7748D03*
X10644Y7348D03*
X10744Y7348D03*
X10844Y7348D03*
X10644Y6948D03*
X10744Y6948D03*
X10844Y6948D03*
X10644Y10248D03*
X10744Y10248D03*
X10844Y10248D03*
X10644Y10748D03*
X10744Y10748D03*
X10844Y10748D03*
X10644Y6548D03*
X10744Y6548D03*
X10844Y6548D03*
X10644Y6148D03*
X10744Y6148D03*
X10844Y6148D03*
X10644Y5748D03*
X10744Y5748D03*
X10844Y5748D03*
X10644Y5248D03*
X10744Y5248D03*
X10844Y5248D03*
X10644Y4848D03*
X10744Y4848D03*
X10844Y4848D03*
X10644Y4448D03*
X10744Y4448D03*
X10844Y4448D03*
X3044Y11048D03*
X3144Y11048D03*
X3244Y11048D03*
X3544Y11048D03*
X3644Y11048D03*
X3744Y11048D03*
X4744Y11048D03*
X4844Y11048D03*
X4944Y11048D03*
X5244Y11048D03*
X5344Y11048D03*
X5444Y11048D03*
X5744Y11048D03*
X5844Y11048D03*
X5944Y11048D03*
X6244Y11048D03*
X6344Y11048D03*
X6444Y11048D03*
X6744Y11048D03*
X6844Y11048D03*
X6944Y11048D03*
X7244Y11048D03*
X7344Y11048D03*
X7444Y11048D03*
X7744Y11048D03*
X7844Y11048D03*
X7944Y11048D03*
X8244Y11048D03*
X8344Y11048D03*
X8444Y11048D03*
X8744Y11048D03*
X8844Y11048D03*
X8944Y11048D03*
X9144Y11048D03*
X9244Y11048D03*
X9344Y11048D03*
X9544Y11048D03*
X9644Y11048D03*
X9744Y11048D03*
X2644Y11048D03*
X2744Y11048D03*
X2844Y11048D03*
X2144Y11048D03*
X2244Y11048D03*
X2344Y11048D03*
X4144Y11048D03*
X4244Y11048D03*
X4344Y11048D03*
G54D10*
X2044Y9948D03*
X1944Y11448D03*
G54D11*
X5644Y3548D03*
X5744Y3548D03*
X5844Y3548D03*
X1244Y3548D03*
X1344Y3548D03*
X1444Y3548D03*
X9244Y3548D03*
X9344Y3548D03*
X9444Y3548D03*
X8844Y3548D03*
X8944Y3548D03*
X9044Y3548D03*
X6444Y3548D03*
X6544Y3548D03*
X6644Y3548D03*
X6044Y3548D03*
X6144Y3548D03*
X6244Y3548D03*
X7644Y3548D03*
X7744Y3548D03*
X7844Y3548D03*
X6844Y3548D03*
X6944Y3548D03*
X7044Y3548D03*
X7244Y3548D03*
X7344Y3548D03*
X7444Y3548D03*
X8044Y3548D03*
X8144Y3548D03*
X8244Y3548D03*
X8444Y3548D03*
X8544Y3548D03*
X8644Y3548D03*
G54D10*
X11544Y10748D03*
X11544Y10248D03*
X11544Y9748D03*
X11544Y9348D03*
X11544Y8948D03*
X11544Y8548D03*
X11544Y7748D03*
X11544Y8148D03*
X11544Y7348D03*
X11544Y6948D03*
X11544Y6548D03*
X11544Y6148D03*
X11544Y5748D03*
X11544Y11448D03*
X11544Y5248D03*
X11544Y4848D03*
X11544Y4448D03*
X11544Y2748D03*
X10544Y2748D03*
X10244Y2748D03*
X9844Y2748D03*
X9444Y2748D03*
X9144Y2748D03*
X8644Y2748D03*
X8244Y2748D03*
X7244Y2748D03*
X7644Y2748D03*
X7344Y2748D03*
X6944Y2748D03*
X6644Y2748D03*
X5944Y2748D03*
X5444Y2748D03*
X4744Y2748D03*
X3444Y2748D03*
X2644Y2748D03*
X2244Y2748D03*
X1844Y2748D03*
X1444Y2748D03*
X4244Y2748D03*
X4644Y2748D03*
X5144Y2748D03*
X5544Y2748D03*
X6344Y2748D03*
X6744Y2748D03*
X7844Y2748D03*
X9044Y2748D03*
X10044Y2748D03*
X9044Y2748D03*
X6244Y8848D03*
X6744Y7348D03*
X6544Y6848D03*
G54D12*
X144Y8948D03*
X144Y8848D03*
X144Y8748D03*
X144Y8648D03*
G54D13*
X144Y8548D03*
G54D12*
X144Y8448D03*
X144Y8348D03*
X144Y8248D03*
X144Y8148D03*
G54D13*
X144Y8048D03*
G54D12*
X144Y7948D03*
G54D13*
X144Y7848D03*
G54D12*
X144Y7748D03*
X144Y7648D03*
X144Y7548D03*
X144Y7448D03*
G54D13*
X144Y7348D03*
G54D12*
X144Y7248D03*
X144Y7148D03*
X144Y7048D03*
X244Y7048D03*
X244Y7148D03*
X244Y7248D03*
G54D13*
X244Y7348D03*
G54D12*
X244Y7448D03*
X244Y7548D03*
X244Y7648D03*
X244Y7748D03*
G54D13*
X244Y7848D03*
G54D12*
X244Y7948D03*
G54D13*
X244Y8048D03*
G54D12*
X244Y8148D03*
X244Y8248D03*
X244Y8348D03*
X244Y8448D03*
G54D13*
X244Y8548D03*
G54D12*
X244Y8648D03*
X244Y8748D03*
X244Y8848D03*
X244Y8948D03*
G54D11*
X444Y3548D03*
X544Y3548D03*
X644Y3548D03*
X844Y3548D03*
X944Y3548D03*
X1044Y3548D03*
G54D10*
X1044Y2748D03*
X4244Y2748D03*
G54D14*
X4244Y5248D03*
X6144Y5248D03*
X8044Y6748D03*
X8044Y8248D03*
X6844Y9948D03*
X5044Y9948D03*
X2844Y5248D03*
G54D15*
X1463Y2748D02*
X3044Y2747D01*
D02*
X3044Y2747D02*
X4225Y2748D01*
D02*
X4263Y2748D02*
X11525Y2748D01*
D02*
X11544Y4867D02*
X11544Y11429D01*
D02*
X4245Y9048D02*
X4141Y9046D01*
D02*
X4141Y9046D02*
X2863Y9048D01*
D02*
X4425Y9048D02*
X4245Y9048D01*
D02*
X4844Y9620D02*
X4844Y9267D01*
D02*
X2063Y9948D02*
X4315Y9948D01*
D02*
X4925Y9048D02*
X4463Y9048D01*
D02*
X2645Y8948D02*
X2645Y9049D01*
D02*
X2645Y9049D02*
X2445Y9049D01*
D02*
X2445Y9049D02*
X177Y8950D01*
D02*
X4725Y8948D02*
X2645Y8948D01*
D02*
X4544Y8729D02*
X4544Y8567D01*
D02*
X4544Y9429D02*
X4544Y9267D01*
D02*
X4644Y8829D02*
X4644Y8467D01*
D02*
X4644Y9429D02*
X4644Y9267D01*
D02*
X4444Y9620D02*
X4444Y9067D01*
D02*
X7715Y8848D02*
X6763Y8848D01*
D02*
X6244Y8867D02*
X6244Y9620D01*
D02*
X7625Y7048D02*
X6963Y7048D01*
D02*
X6963Y7648D02*
X7625Y7648D01*
D02*
X7063Y8548D02*
X7625Y8548D01*
D02*
X6544Y9429D02*
X6544Y9067D01*
D02*
X4745Y9049D02*
X4925Y9048D01*
D02*
X5944Y9429D02*
X5944Y9067D01*
D02*
X4744Y9620D02*
X4745Y9049D01*
D02*
X3345Y6448D02*
X4225Y6448D01*
D02*
X2844Y6448D02*
X3345Y6448D01*
D02*
X2844Y5577D02*
X2844Y6448D01*
D02*
X4844Y5577D02*
X4844Y6429D01*
D02*
X4863Y6448D02*
X6125Y6448D01*
D02*
X4263Y6448D02*
X4825Y6448D01*
D02*
X4244Y5577D02*
X4244Y6429D01*
D02*
X6745Y6448D02*
X6760Y6437D01*
D02*
X6744Y5577D02*
X6745Y6448D01*
D02*
X6163Y6448D02*
X6745Y6448D01*
D02*
X6745Y6448D02*
X6760Y6437D01*
D02*
X6744Y6467D02*
X6744Y6729D01*
D02*
X6144Y5577D02*
X6144Y6429D01*
D02*
X6763Y7348D02*
X7715Y7348D01*
D02*
X4725Y6648D02*
X4563Y6648D01*
D02*
X3344Y6667D02*
X3344Y7529D01*
D02*
X3344Y5577D02*
X3344Y6129D01*
D02*
X3244Y5577D02*
X3244Y6129D01*
D02*
X4644Y5577D02*
X4644Y6129D01*
D02*
X7715Y7148D02*
X6863Y7148D01*
D02*
X7715Y8648D02*
X6863Y8648D01*
D02*
X6444Y9429D02*
X6444Y8967D01*
D02*
X3463Y6448D02*
X4225Y6448D01*
D02*
X3444Y5577D02*
X3444Y6429D01*
D02*
X6144Y9267D02*
X6144Y9429D01*
D02*
X6346Y9248D02*
X6344Y9429D01*
D02*
X6863Y7248D02*
X7715Y7248D01*
D02*
X6646Y6647D02*
X6644Y7029D01*
D02*
X6644Y7229D02*
X6644Y7067D01*
D02*
X7715Y8748D02*
X6863Y8748D01*
D02*
X6544Y6129D02*
X6544Y5577D01*
D02*
X6644Y6129D02*
X6644Y5577D01*
D02*
X6463Y6648D02*
X6646Y6647D01*
D02*
X6344Y8967D02*
X6346Y9248D01*
D02*
X4444Y5577D02*
X4444Y5829D01*
D02*
X7363Y8948D02*
X7715Y8948D01*
D02*
X7525Y9048D02*
X7363Y9048D01*
D02*
X4744Y5577D02*
X4744Y6129D01*
D02*
X5143Y5249D02*
X5144Y6029D01*
D02*
X4973Y5248D02*
X5143Y5249D01*
D02*
X4544Y5577D02*
X4544Y6029D01*
D02*
X6944Y6029D02*
X6944Y5267D01*
D02*
X6444Y6029D02*
X6444Y5577D01*
D02*
X5944Y5567D02*
X5944Y5929D01*
D02*
X6243Y5746D02*
X6244Y5577D01*
D02*
X6244Y5929D02*
X6243Y5746D01*
D02*
X4044Y5267D02*
X4044Y5829D01*
D02*
X4344Y5829D02*
X4344Y5577D01*
D02*
X3144Y5577D02*
X3144Y6029D01*
D02*
X3845Y5249D02*
X3573Y5248D01*
D02*
X3844Y6029D02*
X3845Y5249D01*
D02*
X7163Y7448D02*
X7715Y7448D01*
D02*
X4944Y5729D02*
X4944Y5577D01*
D02*
X6844Y5577D02*
X6844Y5829D01*
D02*
X1945Y11429D02*
X2043Y9967D01*
D02*
X4244Y2767D02*
X4244Y3520D01*
D02*
X4644Y2767D02*
X4644Y3520D01*
D02*
X5142Y2767D02*
X5048Y3520D01*
D02*
X5542Y2767D02*
X5448Y3520D01*
D02*
X5942Y2767D02*
X5848Y3520D01*
D02*
X6342Y2767D02*
X6248Y3520D01*
D02*
X6644Y2747D02*
X6644Y3520D01*
D02*
X6725Y2748D02*
X6644Y2747D01*
D02*
X7042Y2747D02*
X7044Y3520D01*
D02*
X7225Y2748D02*
X7042Y2747D01*
D02*
X7446Y2747D02*
X7444Y3520D01*
D02*
X7825Y2748D02*
X7446Y2747D01*
D02*
X9044Y2767D02*
X9044Y3520D01*
D02*
X1941Y9651D02*
X2843Y9651D01*
D02*
X2843Y9651D02*
X2844Y9067D01*
D02*
X2038Y9930D02*
X1941Y9651D01*
D02*
X5045Y8948D02*
X4763Y8948D01*
D02*
X5045Y8849D02*
X5045Y8948D01*
D02*
X5044Y9620D02*
X5045Y8849D01*
D02*
X6745Y9150D02*
X6844Y9150D01*
D02*
X6844Y9150D02*
X6844Y9620D01*
D02*
X6745Y8848D02*
X6745Y9150D01*
D02*
X6244Y8849D02*
X6745Y8848D01*
D02*
X5045Y8849D02*
X6244Y8849D01*
D02*
X6843Y8249D02*
X7715Y8248D01*
D02*
X6745Y8246D02*
X6843Y8249D01*
D02*
X6745Y8848D02*
X6745Y8246D01*
D02*
X6763Y6748D02*
X7715Y6748D01*
D02*
X6745Y8246D02*
X6745Y7347D01*
D02*
X6745Y7347D02*
X6744Y6767D01*
D02*
X6843Y8249D02*
X6745Y8246D01*
D02*
X3444Y3520D02*
X3444Y2767D01*
G04 End of Copper0*
M02*