G04 MADE WITH FRITZING*
G04 WWW.FRITZING.ORG*
G04 SINGLE SIDED*
G04 HOLES NOT PLATED*
G04 CONTOUR ON CENTER OF CONTOUR VECTOR*
%ASAXBY*%
%FSLAX23Y23*%
%MOIN*%
%OFA0B0*%
%SFA1.0B1.0*%
%ADD10C,0.085000*%
%ADD11C,0.081889*%
%ADD12C,0.081917*%
%ADD13R,0.085000X0.085000*%
%LNMASK0*%
G90*
G70*
G54D10*
X8678Y6668D03*
X8678Y6368D03*
X8578Y6668D03*
X8578Y6368D03*
X8478Y6668D03*
X8478Y6368D03*
X8378Y6668D03*
X8378Y6368D03*
X8278Y6668D03*
X8278Y6368D03*
X8178Y6668D03*
X8178Y6368D03*
X8078Y6668D03*
X8078Y6368D03*
X7978Y6668D03*
X7978Y6368D03*
X8678Y5468D03*
X8678Y5168D03*
X8578Y5468D03*
X8578Y5168D03*
X8478Y5468D03*
X8478Y5168D03*
X8378Y5468D03*
X8378Y5168D03*
X8278Y5468D03*
X8278Y5168D03*
X8178Y5468D03*
X8178Y5168D03*
X8078Y5468D03*
X8078Y5168D03*
X7978Y5468D03*
X7978Y5168D03*
X8678Y4868D03*
X8678Y4568D03*
X8578Y4868D03*
X8578Y4568D03*
X8478Y4868D03*
X8478Y4568D03*
X8378Y4868D03*
X8378Y4568D03*
X8278Y4868D03*
X8278Y4568D03*
X8178Y4868D03*
X8178Y4568D03*
X8078Y4868D03*
X8078Y4568D03*
X7978Y4868D03*
X7978Y4568D03*
X8678Y6068D03*
X8678Y5768D03*
X8578Y6068D03*
X8578Y5768D03*
X8478Y6068D03*
X8478Y5768D03*
X8378Y6068D03*
X8378Y5768D03*
X8278Y6068D03*
X8278Y5768D03*
X8178Y6068D03*
X8178Y5768D03*
X8078Y6068D03*
X8078Y5768D03*
X7978Y6068D03*
X7978Y5768D03*
X8678Y4168D03*
X8678Y3868D03*
X8578Y4168D03*
X8578Y3868D03*
X8478Y4168D03*
X8478Y3868D03*
X8378Y4168D03*
X8378Y3868D03*
X8278Y4168D03*
X8278Y3868D03*
X8178Y4168D03*
X8178Y3868D03*
X8078Y4168D03*
X8078Y3868D03*
X7978Y4168D03*
X7978Y3868D03*
X8678Y2668D03*
X8678Y2368D03*
X8578Y2668D03*
X8578Y2368D03*
X8478Y2668D03*
X8478Y2368D03*
X8378Y2668D03*
X8378Y2368D03*
X8278Y2668D03*
X8278Y2368D03*
X8178Y2668D03*
X8178Y2368D03*
X8078Y2668D03*
X8078Y2368D03*
X7978Y2668D03*
X7978Y2368D03*
X5078Y6668D03*
X5078Y6568D03*
X5078Y6468D03*
X6478Y3268D03*
X6478Y3168D03*
X6478Y3068D03*
X7178Y3268D03*
X7178Y3168D03*
X7178Y3068D03*
X7578Y3268D03*
X7578Y3168D03*
X7578Y3068D03*
X6778Y3268D03*
X6778Y3168D03*
X6778Y3068D03*
X7078Y2568D03*
X7078Y2468D03*
X7078Y2368D03*
X6678Y2568D03*
X6678Y2468D03*
X6678Y2368D03*
X6378Y2568D03*
X6378Y2468D03*
X6378Y2368D03*
X7478Y2568D03*
X7478Y2468D03*
X7478Y2368D03*
X6078Y4768D03*
X6078Y4668D03*
X6078Y4568D03*
X5978Y2568D03*
X5978Y2468D03*
X5978Y2368D03*
X5978Y6668D03*
X5978Y6568D03*
X5978Y6468D03*
X5878Y5368D03*
X5878Y5268D03*
X5878Y5168D03*
X5178Y2568D03*
X5178Y2468D03*
X5178Y2368D03*
X5578Y2568D03*
X5578Y2468D03*
X5578Y2368D03*
X6078Y4068D03*
X6078Y3968D03*
X6078Y3868D03*
X6078Y3268D03*
X6078Y3168D03*
X6078Y3068D03*
X5778Y3268D03*
X5778Y3168D03*
X5778Y3068D03*
X6278Y5968D03*
X6278Y5868D03*
X6278Y5768D03*
X6178Y5368D03*
X6178Y5268D03*
X6178Y5168D03*
X6378Y4068D03*
X6378Y3968D03*
X6378Y3868D03*
X6378Y4768D03*
X6378Y4668D03*
X6378Y4568D03*
X6278Y6668D03*
X6278Y6568D03*
X6278Y6468D03*
X4778Y2568D03*
X4778Y2468D03*
X4778Y2368D03*
X5078Y3268D03*
X5078Y3168D03*
X5078Y3068D03*
X5378Y6668D03*
X5378Y6568D03*
X5378Y6468D03*
X5178Y5968D03*
X5178Y5868D03*
X5178Y5768D03*
X5178Y5368D03*
X5178Y5268D03*
X5178Y5168D03*
X5778Y4768D03*
X5778Y4668D03*
X5778Y4568D03*
X5978Y5968D03*
X5978Y5868D03*
X5978Y5768D03*
X5578Y5368D03*
X5578Y5268D03*
X5578Y5168D03*
X5478Y3268D03*
X5478Y3168D03*
X5478Y3068D03*
X5478Y4768D03*
X5478Y4668D03*
X5478Y4568D03*
X5278Y4068D03*
X5278Y3968D03*
X5278Y3868D03*
X5678Y4068D03*
X5678Y3968D03*
X5678Y3868D03*
X5578Y5968D03*
X5578Y5868D03*
X5578Y5768D03*
X8678Y3368D03*
X8678Y3068D03*
X8578Y3368D03*
X8578Y3068D03*
X8478Y3368D03*
X8478Y3068D03*
X8378Y3368D03*
X8378Y3068D03*
X8278Y3368D03*
X8278Y3068D03*
X8178Y3368D03*
X8178Y3068D03*
X8078Y3368D03*
X8078Y3068D03*
X7978Y3368D03*
X7978Y3068D03*
X7278Y4068D03*
X7278Y3968D03*
X7278Y3868D03*
X6778Y5368D03*
X6778Y5268D03*
X6778Y5168D03*
X6878Y5968D03*
X6878Y5868D03*
X6878Y5768D03*
X6478Y5368D03*
X6478Y5268D03*
X6478Y5168D03*
X7278Y5968D03*
X7278Y5868D03*
X7278Y5768D03*
X6578Y5968D03*
X6578Y5868D03*
X6578Y5768D03*
X7578Y5968D03*
X7578Y5868D03*
X7578Y5768D03*
X6578Y6668D03*
X6578Y6568D03*
X6578Y6468D03*
X7178Y6668D03*
X7178Y6568D03*
X7178Y6468D03*
X6878Y6668D03*
X6878Y6568D03*
X6878Y6468D03*
X5678Y6668D03*
X5678Y6568D03*
X5678Y6468D03*
X6978Y4768D03*
X6978Y4668D03*
X6978Y4568D03*
X7578Y4068D03*
X7578Y3968D03*
X7578Y3868D03*
X6978Y4068D03*
X6978Y3968D03*
X6978Y3868D03*
X6678Y4068D03*
X6678Y3968D03*
X6678Y3868D03*
X7178Y5368D03*
X7178Y5268D03*
X7178Y5168D03*
X7478Y5368D03*
X7478Y5268D03*
X7478Y5168D03*
X7578Y4768D03*
X7578Y4668D03*
X7578Y4568D03*
X7278Y4768D03*
X7278Y4668D03*
X7278Y4568D03*
X6678Y4768D03*
X6678Y4668D03*
X6678Y4568D03*
G54D11*
X378Y6068D03*
X478Y6068D03*
X578Y6068D03*
X678Y6068D03*
G54D12*
X778Y6068D03*
G54D11*
X878Y6068D03*
X978Y6068D03*
X1078Y6068D03*
X1178Y6068D03*
G54D12*
X1278Y6068D03*
G54D11*
X1378Y6068D03*
G54D12*
X1478Y6068D03*
G54D11*
X1578Y6068D03*
X1678Y6068D03*
X1778Y6068D03*
X1878Y6068D03*
G54D12*
X1978Y6068D03*
G54D11*
X2078Y6068D03*
X2178Y6068D03*
X2278Y6068D03*
X2278Y6168D03*
X2178Y6168D03*
X2078Y6168D03*
G54D12*
X1978Y6168D03*
G54D11*
X1878Y6168D03*
X1778Y6168D03*
X1678Y6168D03*
X1578Y6168D03*
G54D12*
X1478Y6168D03*
G54D11*
X1378Y6168D03*
G54D12*
X1278Y6168D03*
G54D11*
X1178Y6168D03*
X1078Y6168D03*
X978Y6168D03*
X878Y6168D03*
G54D12*
X778Y6168D03*
G54D11*
X678Y6168D03*
X578Y6168D03*
X478Y6168D03*
X378Y6168D03*
G54D10*
X7860Y2444D03*
X7980Y2900D03*
X7644Y5180D03*
X7356Y5204D03*
X7284Y6572D03*
X6420Y6668D03*
X8076Y5276D03*
X8796Y5708D03*
X6708Y4268D03*
X6564Y3860D03*
X7956Y4052D03*
X6900Y3452D03*
X6996Y2828D03*
X7188Y2540D03*
G54D13*
X8678Y6668D03*
X8678Y5468D03*
X8678Y4868D03*
X8678Y6068D03*
X8678Y4168D03*
X8678Y2668D03*
X8678Y3368D03*
G04 End of Mask0*
M02*