; NON-PLATED HOLES START AT T1
; THROUGH (PLATED) HOLES START AT T100
M48
INCH
T100C0.044111
T101C0.044139
T102C0.035000
%
T100
X010779Y061681
X016779Y061681
X006779Y060682
X018779Y060682
X009779Y060682
X010779Y060682
X004779Y060682
X006779Y061681
X020779Y061681
X022779Y061681
X013779Y060682
X008779Y060682
X008779Y061681
X013779Y061681
X015779Y061681
X005779Y061681
X022779Y060682
X016779Y060682
X003779Y061681
X003779Y060682
X020779Y060682
X021779Y061681
X018779Y061681
X004779Y061681
X011779Y061681
X021779Y060682
X011779Y060682
X017779Y061681
X017779Y060682
X005779Y060682
X015779Y060682
X009779Y061681
T101
X012779Y061681
X019779Y060682
X014779Y060682
X014779Y061681
X007779Y061681
X007779Y060682
X019779Y061681
X012779Y060682
T102
X081779Y048681
X083779Y063681
X085779Y066681
X080779Y063681
X050779Y031681
X072779Y039681
X083779Y030681
X055779Y051681
X081779Y041681
X059779Y065681
X059779Y059681
X062779Y065681
X081779Y033681
X063779Y039681
X050779Y064681
X082779Y026681
X055779Y025681
X069779Y038681
X074779Y024681
X086779Y023681
X056779Y065681
X075779Y038681
X086779Y060681
X066779Y047681
X063779Y025681
X055779Y052681
X082779Y063681
X081779Y063681
X068779Y064681
X081779Y066681
X085779Y057681
X079779Y030681
X055779Y058681
X085779Y054681
X057779Y047681
X075779Y039681
X086779Y026681
X085779Y051681
X067779Y051681
X085779Y060681
X071779Y032681
X081779Y045681
X085779Y026681
X079779Y060681
X082779Y054681
X075779Y058681
X076440Y051800
X080779Y038681
X081779Y051681
X051779Y051681
X062779Y064681
X086779Y051681
X069000Y034520
X066779Y045681
X084779Y033681
X085779Y033681
X086779Y063681
X061779Y051681
X084779Y023681
X087960Y057080
X063779Y045681
X083779Y066681
X067080Y042680
X059779Y023681
X080760Y052760
X059779Y064681
X079779Y051681
X084779Y066681
X075779Y031681
X080779Y023681
X054779Y047681
X053779Y064681
X080779Y066681
X081779Y038681
X084779Y026681
X083779Y048681
X081779Y060681
X071779Y052681
X079779Y045681
X063779Y046681
X075779Y059681
X065779Y058681
X084779Y054681
X058779Y052681
X085779Y041681
X074779Y052681
X069960Y028280
X082779Y038681
X079800Y029000
X065779Y057681
X059779Y066681
X057779Y030681
X064779Y053681
X081779Y030681
X074779Y051681
X080779Y048681
X060779Y038681
X079779Y026681
X082779Y041681
X069779Y047681
X051779Y059681
X072779Y045681
X072779Y058681
X086779Y041681
X067779Y053681
X066779Y023681
X069779Y040681
X060779Y031681
X084779Y045681
X065779Y059681
X079779Y066681
X075779Y045681
X056779Y039681
X067779Y052681
X083779Y051681
X071779Y030681
X084779Y038681
X083779Y057681
X082779Y051681
X068779Y059681
X050779Y032681
X051779Y023681
X064779Y030681
X082779Y023681
X082779Y060681
X056779Y040681
X075779Y057681
X054779Y046681
X058779Y051681
X068779Y057681
X051779Y052681
X068779Y058681
X060779Y039681
X066779Y040681
X083779Y041681
X072779Y057681
X071779Y066681
X082779Y045681
X069779Y045681
X069779Y046681
X070779Y025681
X083779Y060681
X085779Y023681
X075779Y047681
X079779Y063681
X080779Y033681
X080779Y026681
X061779Y053681
X066779Y025681
X079779Y048681
X086779Y033681
X050779Y066681
X082779Y057681
X081779Y023681
X064200Y066680
X065779Y065681
X062779Y057681
X075779Y032681
X062779Y059681
X060779Y047681
X080779Y041681
X070779Y024681
X072779Y047681
X079779Y054681
X059779Y058681
X063779Y038681
X066779Y038681
X081779Y026681
X080779Y057681
X063779Y040681
X080779Y030681
X071779Y064681
X051779Y024681
X072779Y046681
X065779Y064681
X079779Y057681
X085779Y045681
X079560Y040520
X052779Y039681
X085779Y030681
X084779Y041681
X086779Y054681
X064779Y051681
X071779Y065681
X081779Y054681
X067779Y031681
X063779Y024681
X055779Y053681
X086779Y030681
X083779Y045681
X060779Y046681
X051779Y025681
X080779Y060681
X080779Y051681
X079779Y033681
X058779Y053681
X082779Y066681
X047779Y023681
X084779Y048681
X085779Y038681
X068779Y065681
X083779Y023681
X053779Y065681
X085779Y063681
X051779Y053681
X057779Y032681
X084779Y063681
X055779Y023681
X086779Y066681
X082779Y033681
X071779Y053681
X071779Y031681
X075779Y040681
X062779Y066681
X083779Y026681
X059779Y057681
X078600Y024440
X050779Y065681
X057779Y045681
X083779Y038681
X075779Y046681
X075779Y030681
X060779Y045681
X060779Y032681
X065640Y038600
X072779Y040681
X066779Y024681
X079779Y041681
X072779Y038681
X074779Y025681
X072779Y059681
X059779Y025681
X064779Y031681
X063779Y047681
X086779Y045681
X066779Y046681
X079779Y038681
X064779Y052681
X084779Y060681
X054779Y032681
X071880Y025400
X074779Y053681
X061779Y052681
X068779Y066681
X065779Y066681
X060779Y030681
X056779Y064681
X052779Y040681
X060779Y040681
X086779Y038681
X067779Y030681
X055779Y024681
X063779Y023681
X056779Y066681
X050779Y030681
X079779Y023681
X051779Y057681
X073560Y052040
X055779Y059681
X081779Y057681
X066779Y039681
X069779Y039681
X057779Y031681
X056779Y038681
X054779Y031681
X064779Y032681
X070779Y023681
X052779Y038681
X082779Y030681
X047779Y025681
X085779Y048681
X055779Y057681
X083779Y054681
X051779Y058681
X084779Y051681
X057779Y046681
X074779Y023681
X062779Y058681
X084779Y030681
X080779Y045681
X086779Y057681
X071779Y051681
X086779Y048681
X083779Y033681
X059779Y024681
X053779Y066681
X080779Y054681
X054779Y045681
X084779Y057681
X082779Y048681
X072840Y065720
X054779Y030681
X047779Y024681
X067779Y032681
T00
M30
